Soobi-Display.ufo
<glyph name="exclam" format="2">
  <advance width="262"/>
  <unicode hex="0021"/>
  <outline>
    <contour>
      <point x="127" y="214" type="curve" smooth="yes"/>
      <point x="252" y="214"/>
      <point x="190" y="309"/>
      <point x="190" y="411" type="curve" smooth="yes"/>
      <point x="190" y="546"/>
      <point x="205" y="547"/>
      <point x="205" y="642" type="curve" smooth="yes"/>
      <point x="205" y="748"/>
      <point x="44" y="747"/>
      <point x="44" y="642" type="curve" smooth="yes"/>
      <point x="44" y="547"/>
      <point x="59" y="546"/>
      <point x="59" y="411" type="curve" smooth="yes"/>
      <point x="59" y="309"/>
      <point x="-2" y="214"/>
    </contour>
    <contour>
      <point x="127" y="-7" type="curve" smooth="yes"/>
      <point x="200" y="-7"/>
      <point x="234" y="27"/>
      <point x="234" y="90" type="curve" smooth="yes"/>
      <point x="234" y="150"/>
      <point x="202" y="187"/>
      <point x="127" y="187" type="curve" smooth="yes"/>
      <point x="53" y="187"/>
      <point x="19" y="153"/>
      <point x="19" y="90" type="curve" smooth="yes"/>
      <point x="19" y="30"/>
      <point x="51" y="-7"/>
    </contour>
  </outline>
</glyph>
<glyph name="quotedbl" format="2">
  <advance width="492"/>
  <unicode hex="0022"/>
  <outline>
    <contour>
      <point x="352" y="367" type="curve" smooth="yes"/>
      <point x="464" y="367"/>
      <point x="464" y="451"/>
      <point x="464" y="619" type="curve" smooth="yes"/>
      <point x="464" y="679"/>
      <point x="432" y="716"/>
      <point x="357" y="716" type="curve" smooth="yes"/>
      <point x="283" y="716"/>
      <point x="249" y="682"/>
      <point x="249" y="619" type="curve" smooth="yes"/>
      <point x="249" y="559"/>
      <point x="281" y="522"/>
      <point x="357" y="522" type="curve" smooth="yes"/>
      <point x="365" y="522" type="line" smooth="yes"/>
      <point x="391" y="522"/>
      <point x="390" y="456"/>
      <point x="308" y="456" type="curve" smooth="yes"/>
      <point x="272" y="456"/>
      <point x="274" y="367"/>
    </contour>
    <contour>
      <point x="122" y="367" type="curve" smooth="yes"/>
      <point x="234" y="367"/>
      <point x="234" y="451"/>
      <point x="234" y="619" type="curve" smooth="yes"/>
      <point x="234" y="679"/>
      <point x="202" y="716"/>
      <point x="127" y="716" type="curve" smooth="yes"/>
      <point x="53" y="716"/>
      <point x="19" y="682"/>
      <point x="19" y="619" type="curve" smooth="yes"/>
      <point x="19" y="559"/>
      <point x="51" y="522"/>
      <point x="127" y="522" type="curve" smooth="yes"/>
      <point x="135" y="522" type="line" smooth="yes"/>
      <point x="161" y="522"/>
      <point x="160" y="456"/>
      <point x="78" y="456" type="curve" smooth="yes"/>
      <point x="42" y="456"/>
      <point x="44" y="367"/>
    </contour>
  </outline>
</glyph>
<glyph name="quotesingle" format="2">
  <advance width="262"/>
  <unicode hex="0027"/>
  <outline>
    <contour>
      <point x="122" y="367" type="curve" smooth="yes"/>
      <point x="234" y="367"/>
      <point x="234" y="451"/>
      <point x="234" y="619" type="curve" smooth="yes"/>
      <point x="234" y="679"/>
      <point x="202" y="716"/>
      <point x="127" y="716" type="curve" smooth="yes"/>
      <point x="53" y="716"/>
      <point x="19" y="682"/>
      <point x="19" y="619" type="curve" smooth="yes"/>
      <point x="19" y="559"/>
      <point x="51" y="522"/>
      <point x="127" y="522" type="curve" smooth="yes"/>
      <point x="135" y="522" type="line" smooth="yes"/>
      <point x="161" y="522"/>
      <point x="160" y="456"/>
      <point x="78" y="456" type="curve" smooth="yes"/>
      <point x="42" y="456"/>
      <point x="44" y="367"/>
    </contour>
  </outline>
</glyph>
<glyph name="comma" format="2">
  <advance width="262"/>
  <unicode hex="002C"/>
  <outline>
    <contour>
      <point x="122" y="-162" type="curve" smooth="yes"/>
      <point x="234" y="-162"/>
      <point x="234" y="-78"/>
      <point x="234" y="90" type="curve" smooth="yes"/>
      <point x="234" y="150"/>
      <point x="202" y="187"/>
      <point x="127" y="187" type="curve" smooth="yes"/>
      <point x="53" y="187"/>
      <point x="19" y="153"/>
      <point x="19" y="90" type="curve" smooth="yes"/>
      <point x="19" y="30"/>
      <point x="51" y="-7"/>
      <point x="127" y="-7" type="curve" smooth="yes"/>
      <point x="135" y="-7" type="line" smooth="yes"/>
      <point x="161" y="-7"/>
      <point x="160" y="-73"/>
      <point x="78" y="-73" type="curve" smooth="yes"/>
      <point x="42" y="-73"/>
      <point x="44" y="-162"/>
    </contour>
  </outline>
</glyph>
<glyph name="hyphen" format="2">
  <advance width="454"/>
  <unicode hex="002D"/>
  <outline>
    <contour>
      <point x="222" y="226" type="curve" smooth="yes"/>
      <point x="333" y="226"/>
      <point x="426" y="172"/>
      <point x="426" y="286" type="curve" smooth="yes"/>
      <point x="426" y="401"/>
      <point x="333" y="360"/>
      <point x="223" y="355" type="curve"/>
      <point x="112" y="359"/>
      <point x="19" y="399"/>
      <point x="19" y="285" type="curve" smooth="yes"/>
      <point x="19" y="170"/>
      <point x="112" y="226"/>
    </contour>
  </outline>
</glyph>
<glyph name="period" format="2">
  <advance width="262"/>
  <unicode hex="002E"/>
  <outline>
    <contour>
      <point x="127" y="-7" type="curve" smooth="yes"/>
      <point x="200" y="-7"/>
      <point x="234" y="27"/>
      <point x="234" y="90" type="curve" smooth="yes"/>
      <point x="234" y="150"/>
      <point x="202" y="187"/>
      <point x="127" y="187" type="curve" smooth="yes"/>
      <point x="53" y="187"/>
      <point x="19" y="153"/>
      <point x="19" y="90" type="curve" smooth="yes"/>
      <point x="19" y="30"/>
      <point x="51" y="-7"/>
    </contour>
  </outline>
</glyph>
<glyph name="zero" format="2">
  <advance width="624"/>
  <unicode hex="0030"/>
  <outline>
    <contour>
      <point x="313" y="-26" type="curve" smooth="yes"/>
      <point x="497" y="-26"/>
      <point x="609" y="160"/>
      <point x="609" y="357" type="curve" smooth="yes"/>
      <point x="609" y="556"/>
      <point x="497" y="726"/>
      <point x="313" y="726" type="curve" smooth="yes"/>
      <point x="127" y="726"/>
      <point x="15" y="555"/>
      <point x="15" y="357" type="curve" smooth="yes"/>
      <point x="15" y="160"/>
      <point x="127" y="-26"/>
    </contour>
    <contour>
      <point x="314" y="53" type="curve" smooth="yes"/>
      <point x="244" y="53"/>
      <point x="220" y="129"/>
      <point x="220" y="355" type="curve" smooth="yes"/>
      <point x="220" y="573"/>
      <point x="244" y="646"/>
      <point x="314" y="646" type="curve" smooth="yes"/>
      <point x="382" y="646"/>
      <point x="404" y="573"/>
      <point x="404" y="355" type="curve" smooth="yes"/>
      <point x="404" y="129"/>
      <point x="382" y="53"/>
    </contour>
  </outline>
</glyph>
<glyph name="one" format="2">
  <advance width="447"/>
  <unicode hex="0031"/>
  <outline>
    <contour>
      <point x="216" y="-3" type="curve" smooth="yes"/>
      <point x="325" y="-3"/>
      <point x="422" y="-38"/>
      <point x="422" y="61" type="curve" smooth="yes"/>
      <point x="422" y="118"/>
      <point x="388" y="118"/>
      <point x="326" y="118" type="curve" smooth="yes"/>
      <point x="260" y="118"/>
      <point x="307" y="553"/>
      <point x="307" y="626" type="curve" smooth="yes"/>
      <point x="307" y="691"/>
      <point x="270" y="716"/>
      <point x="225" y="716" type="curve" smooth="yes"/>
      <point x="137" y="716"/>
      <point x="192" y="622"/>
      <point x="99" y="622" type="curve" smooth="yes"/>
      <point x="26" y="622"/>
      <point x="22" y="513"/>
      <point x="69" y="478" type="curve" smooth="yes"/>
      <point x="93" y="460"/>
      <point x="135" y="455"/>
      <point x="163" y="487" type="curve"/>
      <point x="172" y="443"/>
      <point x="188" y="119"/>
      <point x="122" y="119" type="curve" smooth="yes"/>
      <point x="64" y="119"/>
      <point x="25" y="119"/>
      <point x="25" y="53" type="curve" smooth="yes"/>
      <point x="25" y="-40"/>
      <point x="103" y="-3"/>
    </contour>
  </outline>
</glyph>
<glyph name="two" format="2">
  <advance width="563"/>
  <unicode hex="0032"/>
  <outline>
    <contour>
      <point x="86" y="-16" type="curve" smooth="yes"/>
      <point x="137" y="-16"/>
      <point x="190" y="11"/>
      <point x="282" y="11" type="curve" smooth="yes"/>
      <point x="373" y="11"/>
      <point x="414" y="-16"/>
      <point x="458" y="-16" type="curve" smooth="yes"/>
      <point x="526" y="-16"/>
      <point x="538" y="49"/>
      <point x="538" y="80" type="curve" smooth="yes"/>
      <point x="538" y="134"/>
      <point x="502" y="189"/>
      <point x="458" y="189" type="curve" smooth="yes"/>
      <point x="404" y="189"/>
      <point x="268" y="107"/>
      <point x="228" y="150" type="curve" smooth="yes"/>
      <point x="168" y="214"/>
      <point x="498" y="372"/>
      <point x="498" y="570" type="curve" smooth="yes"/>
      <point x="498" y="705"/>
      <point x="346" y="726"/>
      <point x="274" y="726" type="curve" smooth="yes"/>
      <point x="196" y="726"/>
      <point x="130" y="701"/>
      <point x="108" y="690" type="curve" smooth="yes"/>
      <point x="62" y="667"/>
      <point x="32" y="618"/>
      <point x="32" y="570" type="curve" smooth="yes"/>
      <point x="32" y="465"/>
      <point x="176" y="471"/>
      <point x="187" y="554" type="curve" smooth="yes"/>
      <point x="198" y="636"/>
      <point x="351" y="642"/>
      <point x="351" y="558" type="curve" smooth="yes"/>
      <point x="351" y="437"/>
      <point x="38" y="267"/>
      <point x="26" y="65" type="curve" smooth="yes"/>
      <point x="24" y="33"/>
      <point x="17" y="-16"/>
    </contour>
  </outline>
</glyph>
<glyph name="three" format="2">
  <advance width="588"/>
  <unicode hex="0033"/>
  <outline>
    <contour>
      <point x="278" y="-26" type="curve" smooth="yes"/>
      <point x="481" y="-26"/>
      <point x="573" y="85"/>
      <point x="573" y="199" type="curve" smooth="yes"/>
      <point x="573" y="288"/>
      <point x="516" y="357"/>
      <point x="407" y="381" type="curve"/>
      <point x="494" y="407"/>
      <point x="537" y="466"/>
      <point x="537" y="539" type="curve" smooth="yes"/>
      <point x="537" y="639"/>
      <point x="455" y="726"/>
      <point x="281" y="726" type="curve" smooth="yes"/>
      <point x="123" y="726"/>
      <point x="55" y="655"/>
      <point x="55" y="603" type="curve" smooth="yes"/>
      <point x="55" y="544"/>
      <point x="140" y="521"/>
      <point x="194" y="555" type="curve" smooth="yes"/>
      <point x="242" y="585"/>
      <point x="223" y="635"/>
      <point x="296" y="635" type="curve" smooth="yes"/>
      <point x="358" y="635"/>
      <point x="369" y="599"/>
      <point x="369" y="535" type="curve" smooth="yes"/>
      <point x="369" y="437"/>
      <point x="343" y="416"/>
      <point x="275" y="416" type="curve" smooth="yes"/>
      <point x="220" y="416"/>
      <point x="189" y="430"/>
      <point x="168" y="428" type="curve" smooth="yes"/>
      <point x="119" y="424"/>
      <point x="108" y="327"/>
      <point x="166" y="323" type="curve" smooth="yes"/>
      <point x="189" y="321"/>
      <point x="218" y="335"/>
      <point x="277" y="335" type="curve" smooth="yes"/>
      <point x="361" y="335"/>
      <point x="391" y="306"/>
      <point x="391" y="200" type="curve" smooth="yes"/>
      <point x="391" y="115"/>
      <point x="372" y="73"/>
      <point x="302" y="73" type="curve" smooth="yes"/>
      <point x="210" y="73"/>
      <point x="248" y="144"/>
      <point x="187" y="174" type="curve" smooth="yes"/>
      <point x="124" y="205"/>
      <point x="9" y="167"/>
      <point x="27" y="91" type="curve" smooth="yes"/>
      <point x="41" y="32"/>
      <point x="132" y="-26"/>
    </contour>
  </outline>
</glyph>
<glyph name="four" format="2">
  <advance width="638"/>
  <unicode hex="0034"/>
  <outline>
    <contour>
      <point x="415" y="-16" type="curve" smooth="yes"/>
      <point x="459" y="-16"/>
      <point x="511" y="6"/>
      <point x="511" y="68" type="curve" smooth="yes"/>
      <point x="511" y="105"/>
      <point x="492" y="187"/>
      <point x="499" y="206" type="curve" smooth="yes"/>
      <point x="504" y="220"/>
      <point x="527" y="194"/>
      <point x="558" y="194" type="curve" smooth="yes"/>
      <point x="596" y="194"/>
      <point x="613" y="217"/>
      <point x="613" y="253" type="curve" smooth="yes"/>
      <point x="613" y="288"/>
      <point x="596" y="311"/>
      <point x="560" y="311" type="curve" smooth="yes"/>
      <point x="537" y="311"/>
      <point x="519" y="312"/>
      <point x="499" y="312" type="curve" smooth="yes"/>
      <point x="481" y="312"/>
      <point x="485" y="553"/>
      <point x="485" y="626" type="curve" smooth="yes"/>
      <point x="485" y="699"/>
      <point x="419" y="716"/>
      <point x="386" y="716" type="curve" smooth="yes"/>
      <point x="356" y="716"/>
      <point x="318" y="701"/>
      <point x="292" y="672" type="curve" smooth="yes"/>
      <point x="260" y="636"/>
      <point x="118" y="419"/>
      <point x="52" y="334" type="curve" smooth="yes"/>
      <point x="-60" y="190"/>
      <point x="205" y="199"/>
      <point x="348" y="199" type="curve" smooth="yes"/>
      <point x="398" y="199"/>
      <point x="322" y="110"/>
      <point x="322" y="54" type="curve" smooth="yes"/>
      <point x="322" y="11"/>
      <point x="366" y="-16"/>
    </contour>
    <contour>
      <point x="219" y="312" type="curve" smooth="yes"/>
      <point x="173" y="323"/>
      <point x="347" y="573"/>
      <point x="369" y="573" type="curve" smooth="yes"/>
      <point x="391" y="573"/>
      <point x="383" y="318"/>
      <point x="353" y="312" type="curve" smooth="yes"/>
      <point x="298" y="301"/>
      <point x="264" y="301"/>
    </contour>
  </outline>
</glyph>
<glyph name="five" format="2">
  <advance width="583"/>
  <unicode hex="0035"/>
  <outline>
    <contour>
      <point x="264" y="-27" type="curve" smooth="yes"/>
      <point x="453" y="-27"/>
      <point x="558" y="109"/>
      <point x="558" y="228" type="curve" smooth="yes"/>
      <point x="558" y="336"/>
      <point x="473" y="465"/>
      <point x="289" y="465" type="curve" smooth="yes"/>
      <point x="189" y="465"/>
      <point x="191" y="428"/>
      <point x="185" y="451" type="curve" smooth="yes"/>
      <point x="161" y="547"/>
      <point x="189" y="593"/>
      <point x="246" y="593" type="curve" smooth="yes"/>
      <point x="304" y="593"/>
      <point x="356" y="545"/>
      <point x="437" y="545" type="curve" smooth="yes"/>
      <point x="584" y="545"/>
      <point x="587" y="706"/>
      <point x="458" y="706" type="curve" smooth="yes"/>
      <point x="383" y="706"/>
      <point x="343" y="691"/>
      <point x="210" y="714" type="curve" smooth="yes"/>
      <point x="129" y="728"/>
      <point x="72" y="681"/>
      <point x="72" y="630" type="curve" smooth="yes"/>
      <point x="72" y="434"/>
      <point x="0" y="302"/>
      <point x="109" y="302" type="curve" smooth="yes"/>
      <point x="168" y="302"/>
      <point x="133" y="341"/>
      <point x="267" y="341" type="curve" smooth="yes"/>
      <point x="370" y="341"/>
      <point x="405" y="318"/>
      <point x="405" y="224" type="curve" smooth="yes"/>
      <point x="405" y="130"/>
      <point x="370" y="107"/>
      <point x="270" y="107" type="curve" smooth="yes"/>
      <point x="109" y="107"/>
      <point x="168" y="167"/>
      <point x="92" y="167" type="curve" smooth="yes"/>
      <point x="-45" y="167"/>
      <point x="38" y="-27"/>
    </contour>
  </outline>
</glyph>
<glyph name="six" format="2">
  <advance width="582"/>
  <unicode hex="0036"/>
  <outline>
    <contour>
      <point x="295" y="-26" type="curve" smooth="yes"/>
      <point x="478" y="-26"/>
      <point x="567" y="84"/>
      <point x="567" y="207" type="curve" smooth="yes"/>
      <point x="567" y="332"/>
      <point x="476" y="452"/>
      <point x="322" y="452" type="curve" smooth="yes"/>
      <point x="230" y="452"/>
      <point x="190" y="409"/>
      <point x="185" y="409" type="curve" smooth="yes"/>
      <point x="159" y="409"/>
      <point x="167" y="528"/>
      <point x="179" y="565" type="curve" smooth="yes"/>
      <point x="210" y="660"/>
      <point x="408" y="647"/>
      <point x="408" y="562" type="curve" smooth="yes"/>
      <point x="408" y="470"/>
      <point x="554" y="481"/>
      <point x="554" y="567" type="curve" smooth="yes"/>
      <point x="554" y="641"/>
      <point x="448" y="726"/>
      <point x="308" y="726" type="curve" smooth="yes"/>
      <point x="232" y="726"/>
      <point x="132" y="701"/>
      <point x="78" y="627" type="curve" smooth="yes"/>
      <point x="3" y="525"/>
      <point x="7" y="323"/>
      <point x="28" y="210" type="curve" smooth="yes"/>
      <point x="53" y="76"/>
      <point x="118" y="-26"/>
    </contour>
    <contour>
      <point x="297" y="38" type="curve" smooth="yes"/>
      <point x="232" y="38"/>
      <point x="210" y="80"/>
      <point x="210" y="212" type="curve" smooth="yes"/>
      <point x="210" y="344"/>
      <point x="232" y="388"/>
      <point x="297" y="388" type="curve" smooth="yes"/>
      <point x="363" y="388"/>
      <point x="385" y="343"/>
      <point x="385" y="212" type="curve" smooth="yes"/>
      <point x="385" y="81"/>
      <point x="363" y="38"/>
    </contour>
  </outline>
</glyph>
<glyph name="seven" format="2">
  <advance width="566"/>
  <unicode hex="0037"/>
  <outline>
    <contour>
      <point x="345" y="55" type="curve" smooth="yes"/>
      <point x="361" y="123"/>
      <point x="333" y="243"/>
      <point x="388" y="355" type="curve" smooth="yes"/>
      <point x="424" y="428"/>
      <point x="511" y="526"/>
      <point x="534" y="590" type="curve" smooth="yes"/>
      <point x="564" y="675"/>
      <point x="488" y="723"/>
      <point x="408" y="714" type="curve" smooth="yes"/>
      <point x="206" y="691"/>
      <point x="165" y="716"/>
      <point x="110" y="716" type="curve" smooth="yes"/>
      <point x="-31" y="716"/>
      <point x="-28" y="555"/>
      <point x="111" y="555" type="curve" smooth="yes"/>
      <point x="179" y="555"/>
      <point x="238" y="593"/>
      <point x="324" y="593" type="curve" smooth="yes"/>
      <point x="406" y="593"/>
      <point x="315" y="438"/>
      <point x="262" y="356" type="curve" smooth="yes"/>
      <point x="221" y="292"/>
      <point x="152" y="190"/>
      <point x="152" y="104" type="curve" smooth="yes"/>
      <point x="152" y="-28"/>
      <point x="317" y="-63"/>
    </contour>
  </outline>
</glyph>
<glyph name="eight" format="2">
  <advance width="609"/>
  <unicode hex="0038"/>
  <outline>
    <contour>
      <point x="304" y="-26" type="curve" smooth="yes"/>
      <point x="504" y="-26"/>
      <point x="594" y="85"/>
      <point x="594" y="197" type="curve" smooth="yes"/>
      <point x="594" y="288"/>
      <point x="539" y="356"/>
      <point x="419" y="381" type="curve"/>
      <point x="514" y="406"/>
      <point x="558" y="466"/>
      <point x="558" y="538" type="curve" smooth="yes"/>
      <point x="558" y="639"/>
      <point x="480" y="726"/>
      <point x="304" y="726" type="curve" smooth="yes"/>
      <point x="128" y="726"/>
      <point x="51" y="639"/>
      <point x="51" y="538" type="curve" smooth="yes"/>
      <point x="51" y="466"/>
      <point x="94" y="406"/>
      <point x="189" y="381" type="curve"/>
      <point x="70" y="356"/>
      <point x="15" y="288"/>
      <point x="15" y="197" type="curve" smooth="yes"/>
      <point x="15" y="85"/>
      <point x="104" y="-26"/>
    </contour>
    <contour>
      <point x="305" y="66" type="curve" smooth="yes"/>
      <point x="224" y="66"/>
      <point x="197" y="99"/>
      <point x="197" y="197" type="curve" smooth="yes"/>
      <point x="197" y="316"/>
      <point x="224" y="355"/>
      <point x="305" y="355" type="curve" smooth="yes"/>
      <point x="385" y="355"/>
      <point x="412" y="316"/>
      <point x="412" y="197" type="curve" smooth="yes"/>
      <point x="412" y="99"/>
      <point x="385" y="66"/>
    </contour>
    <contour>
      <point x="305" y="396" type="curve" smooth="yes"/>
      <point x="241" y="396"/>
      <point x="219" y="432"/>
      <point x="219" y="538" type="curve" smooth="yes"/>
      <point x="219" y="616"/>
      <point x="241" y="642"/>
      <point x="305" y="642" type="curve" smooth="yes"/>
      <point x="369" y="642"/>
      <point x="390" y="616"/>
      <point x="390" y="538" type="curve" smooth="yes"/>
      <point x="390" y="432"/>
      <point x="369" y="396"/>
    </contour>
  </outline>
</glyph>
<glyph name="nine" format="2">
  <advance width="582"/>
  <unicode hex="0039"/>
  <outline>
    <contour>
      <point x="274" y="-26" type="curve" smooth="yes"/>
      <point x="350" y="-26"/>
      <point x="450" y="-1"/>
      <point x="504" y="73" type="curve" smooth="yes"/>
      <point x="579" y="175"/>
      <point x="575" y="377"/>
      <point x="554" y="490" type="curve" smooth="yes"/>
      <point x="529" y="624"/>
      <point x="464" y="726"/>
      <point x="287" y="726" type="curve" smooth="yes"/>
      <point x="104" y="726"/>
      <point x="15" y="616"/>
      <point x="15" y="493" type="curve" smooth="yes"/>
      <point x="15" y="368"/>
      <point x="106" y="248"/>
      <point x="260" y="248" type="curve" smooth="yes"/>
      <point x="352" y="248"/>
      <point x="392" y="291"/>
      <point x="397" y="291" type="curve" smooth="yes"/>
      <point x="423" y="291"/>
      <point x="415" y="172"/>
      <point x="403" y="135" type="curve" smooth="yes"/>
      <point x="372" y="40"/>
      <point x="174" y="53"/>
      <point x="174" y="138" type="curve" smooth="yes"/>
      <point x="174" y="230"/>
      <point x="28" y="219"/>
      <point x="28" y="133" type="curve" smooth="yes"/>
      <point x="28" y="59"/>
      <point x="134" y="-26"/>
    </contour>
    <contour>
      <point x="285" y="312" type="curve" smooth="yes"/>
      <point x="219" y="312"/>
      <point x="197" y="358"/>
      <point x="197" y="489" type="curve" smooth="yes"/>
      <point x="197" y="619"/>
      <point x="219" y="662"/>
      <point x="285" y="662" type="curve" smooth="yes"/>
      <point x="350" y="662"/>
      <point x="372" y="620"/>
      <point x="372" y="489" type="curve" smooth="yes"/>
      <point x="372" y="357"/>
      <point x="350" y="312"/>
    </contour>
  </outline>
</glyph>
<glyph name="colon" format="2">
  <advance width="262"/>
  <unicode hex="003A"/>
  <outline>
    <contour>
      <point x="127" y="313" type="curve" smooth="yes"/>
      <point x="200" y="313"/>
      <point x="234" y="347"/>
      <point x="234" y="410" type="curve" smooth="yes"/>
      <point x="234" y="470"/>
      <point x="202" y="507"/>
      <point x="127" y="507" type="curve" smooth="yes"/>
      <point x="53" y="507"/>
      <point x="19" y="473"/>
      <point x="19" y="410" type="curve" smooth="yes"/>
      <point x="19" y="350"/>
      <point x="51" y="313"/>
    </contour>
    <contour>
      <point x="127" y="-7" type="curve" smooth="yes"/>
      <point x="200" y="-7"/>
      <point x="234" y="27"/>
      <point x="234" y="90" type="curve" smooth="yes"/>
      <point x="234" y="150"/>
      <point x="202" y="187"/>
      <point x="127" y="187" type="curve" smooth="yes"/>
      <point x="53" y="187"/>
      <point x="19" y="153"/>
      <point x="19" y="90" type="curve" smooth="yes"/>
      <point x="19" y="30"/>
      <point x="51" y="-7"/>
    </contour>
  </outline>
</glyph>
<glyph name="semicolon" format="2">
  <advance width="262"/>
  <unicode hex="003B"/>
  <outline>
    <contour>
      <point x="122" y="-162" type="curve" smooth="yes"/>
      <point x="234" y="-162"/>
      <point x="234" y="-78"/>
      <point x="234" y="90" type="curve" smooth="yes"/>
      <point x="234" y="150"/>
      <point x="202" y="187"/>
      <point x="127" y="187" type="curve" smooth="yes"/>
      <point x="53" y="187"/>
      <point x="19" y="153"/>
      <point x="19" y="90" type="curve" smooth="yes"/>
      <point x="19" y="30"/>
      <point x="51" y="-7"/>
      <point x="127" y="-7" type="curve" smooth="yes"/>
      <point x="135" y="-7" type="line" smooth="yes"/>
      <point x="161" y="-7"/>
      <point x="160" y="-73"/>
      <point x="78" y="-73" type="curve" smooth="yes"/>
      <point x="42" y="-73"/>
      <point x="44" y="-162"/>
    </contour>
    <contour>
      <point x="127" y="313" type="curve" smooth="yes"/>
      <point x="200" y="313"/>
      <point x="234" y="347"/>
      <point x="234" y="410" type="curve" smooth="yes"/>
      <point x="234" y="470"/>
      <point x="202" y="507"/>
      <point x="127" y="507" type="curve" smooth="yes"/>
      <point x="53" y="507"/>
      <point x="19" y="473"/>
      <point x="19" y="410" type="curve" smooth="yes"/>
      <point x="19" y="350"/>
      <point x="51" y="313"/>
    </contour>
  </outline>
</glyph>
<glyph name="question" format="2">
  <advance width="513"/>
  <unicode hex="003F"/>
  <outline>
    <contour>
      <point x="186" y="281" type="curve" smooth="yes"/>
      <point x="186" y="190"/>
      <point x="343" y="192"/>
      <point x="343" y="278" type="curve" smooth="yes"/>
      <point x="343" y="368"/>
      <point x="485" y="443"/>
      <point x="485" y="556" type="curve" smooth="yes"/>
      <point x="485" y="577"/>
      <point x="480" y="606"/>
      <point x="470" y="629" type="curve" smooth="yes"/>
      <point x="433" y="715"/>
      <point x="331" y="726"/>
      <point x="272" y="726" type="curve" smooth="yes"/>
      <point x="212" y="726"/>
      <point x="141" y="715"/>
      <point x="95" y="690" type="curve" smooth="yes"/>
      <point x="43" y="662"/>
      <point x="19" y="614"/>
      <point x="19" y="570" type="curve" smooth="yes"/>
      <point x="19" y="465"/>
      <point x="152" y="471"/>
      <point x="164" y="554" type="curve" smooth="yes"/>
      <point x="175" y="631"/>
      <point x="348" y="640"/>
      <point x="348" y="555" type="curve" smooth="yes"/>
      <point x="348" y="472"/>
      <point x="186" y="373"/>
    </contour>
    <contour>
      <point x="265" y="-7" type="curve" smooth="yes"/>
      <point x="338" y="-7"/>
      <point x="372" y="27"/>
      <point x="372" y="90" type="curve" smooth="yes"/>
      <point x="372" y="150"/>
      <point x="340" y="187"/>
      <point x="264" y="187" type="curve" smooth="yes"/>
      <point x="191" y="187"/>
      <point x="157" y="153"/>
      <point x="157" y="90" type="curve" smooth="yes"/>
      <point x="157" y="30"/>
      <point x="189" y="-7"/>
    </contour>
  </outline>
</glyph>
<glyph name="A" format="2">
  <advance width="676"/>
  <unicode hex="0041"/>
  <outline>
    <contour>
      <point x="68" y="-3" type="curve" smooth="yes"/>
      <point x="98" y="-18"/>
      <point x="197" y="-33"/>
      <point x="225" y="35" type="curve" smooth="yes"/>
      <point x="242" y="77"/>
      <point x="224" y="130"/>
      <point x="245" y="184" type="curve" smooth="yes"/>
      <point x="255" y="210"/>
      <point x="431" y="212"/>
      <point x="431" y="184" type="curve" smooth="yes"/>
      <point x="431" y="127"/>
      <point x="435" y="68"/>
      <point x="451" y="35" type="curve" smooth="yes"/>
      <point x="485" y="-36"/>
      <point x="580" y="-17"/>
      <point x="608" y="-3" type="curve" smooth="yes"/>
      <point x="628" y="7"/>
      <point x="670" y="43"/>
      <point x="639" y="130" type="curve" smooth="yes"/>
      <point x="617" y="192"/>
      <point x="570" y="243"/>
      <point x="513" y="422" type="curve" smooth="yes"/>
      <point x="485" y="510"/>
      <point x="458" y="594"/>
      <point x="424" y="666" type="curve" smooth="yes"/>
      <point x="401" y="715"/>
      <point x="394" y="716"/>
      <point x="338" y="716" type="curve" smooth="yes"/>
      <point x="282" y="716"/>
      <point x="275" y="715"/>
      <point x="252" y="666" type="curve" smooth="yes"/>
      <point x="214" y="586"/>
      <point x="185" y="489"/>
      <point x="163" y="422" type="curve" smooth="yes"/>
      <point x="99" y="227"/>
      <point x="59" y="193"/>
      <point x="37" y="130" type="curve" smooth="yes"/>
      <point x="7" y="45"/>
      <point x="46" y="8"/>
    </contour>
    <contour>
      <point x="248" y="300" type="curve" smooth="yes"/>
      <point x="231" y="319"/>
      <point x="286" y="499"/>
      <point x="338" y="499" type="curve" smooth="yes"/>
      <point x="390" y="499"/>
      <point x="445" y="319"/>
      <point x="428" y="300" type="curve" smooth="yes"/>
      <point x="414" y="285"/>
      <point x="263" y="284"/>
    </contour>
  </outline>
</glyph>
<glyph name="B" format="2">
  <advance width="626"/>
  <unicode hex="0042"/>
  <outline>
    <contour>
      <point x="134" y="-16" type="curve" smooth="yes"/>
      <point x="389" y="-16" type="line" smooth="yes"/>
      <point x="510" y="-16"/>
      <point x="606" y="93"/>
      <point x="606" y="201" type="curve" smooth="yes"/>
      <point x="606" y="301"/>
      <point x="534" y="372"/>
      <point x="446" y="372" type="curve"/>
      <point x="534" y="372"/>
      <point x="573" y="447"/>
      <point x="573" y="526" type="curve" smooth="yes"/>
      <point x="573" y="625"/>
      <point x="485" y="716"/>
      <point x="355" y="716" type="curve" smooth="yes"/>
      <point x="134" y="716" type="line" smooth="yes"/>
      <point x="101" y="716"/>
      <point x="26" y="699"/>
      <point x="26" y="626" type="curve" smooth="yes"/>
      <point x="26" y="553"/>
      <point x="76" y="452"/>
      <point x="76" y="349" type="curve" smooth="yes"/>
      <point x="76" y="248"/>
      <point x="26" y="146"/>
      <point x="26" y="74" type="curve" smooth="yes"/>
      <point x="26" y="1"/>
      <point x="101" y="-16"/>
    </contour>
    <contour>
      <point x="315" y="33" type="curve" smooth="yes"/>
      <point x="238" y="33"/>
      <point x="212" y="75"/>
      <point x="212" y="201" type="curve" smooth="yes"/>
      <point x="212" y="314"/>
      <point x="238" y="352"/>
      <point x="315" y="352" type="curve" smooth="yes"/>
      <point x="392" y="352"/>
      <point x="418" y="314"/>
      <point x="418" y="201" type="curve" smooth="yes"/>
      <point x="418" y="75"/>
      <point x="392" y="33"/>
    </contour>
    <contour>
      <point x="303" y="388" type="curve" smooth="yes"/>
      <point x="235" y="388"/>
      <point x="212" y="423"/>
      <point x="212" y="526" type="curve" smooth="yes"/>
      <point x="212" y="632"/>
      <point x="235" y="667"/>
      <point x="303" y="667" type="curve" smooth="yes"/>
      <point x="369" y="667"/>
      <point x="391" y="632"/>
      <point x="391" y="526" type="curve" smooth="yes"/>
      <point x="391" y="423"/>
      <point x="369" y="388"/>
    </contour>
  </outline>
</glyph>
<glyph name="C" format="2">
  <advance width="691"/>
  <unicode hex="0043"/>
  <outline>
    <contour>
      <point x="357" y="-26" type="curve" smooth="yes"/>
      <point x="502" y="-26"/>
      <point x="652" y="52"/>
      <point x="652" y="127" type="curve" smooth="yes"/>
      <point x="652" y="156"/>
      <point x="629" y="181"/>
      <point x="588" y="181" type="curve" smooth="yes"/>
      <point x="498" y="181"/>
      <point x="504" y="63"/>
      <point x="373" y="63" type="curve" smooth="yes"/>
      <point x="279" y="63"/>
      <point x="255" y="124"/>
      <point x="255" y="358" type="curve" smooth="yes"/>
      <point x="255" y="592"/>
      <point x="279" y="646"/>
      <point x="366" y="646" type="curve" smooth="yes"/>
      <point x="508" y="646"/>
      <point x="420" y="501"/>
      <point x="463" y="433" type="curve"/>
      <point x="536" y="330"/>
      <point x="741" y="450"/>
      <point x="646" y="596" type="curve" smooth="yes"/>
      <point x="599" y="669"/>
      <point x="489" y="726"/>
      <point x="358" y="726" type="curve" smooth="yes"/>
      <point x="132" y="726"/>
      <point x="20" y="555"/>
      <point x="20" y="357" type="curve" smooth="yes"/>
      <point x="20" y="160"/>
      <point x="132" y="-26"/>
    </contour>
  </outline>
</glyph>
<glyph name="D" format="2">
  <advance width="722"/>
  <unicode hex="0044"/>
  <outline>
    <contour>
      <point x="347" y="-16" type="curve" smooth="yes"/>
      <point x="550" y="-16"/>
      <point x="692" y="160"/>
      <point x="692" y="357" type="curve" smooth="yes"/>
      <point x="692" y="556"/>
      <point x="550" y="716"/>
      <point x="346" y="716" type="curve" smooth="yes"/>
      <point x="-150" y="716"/>
      <point x="78" y="555"/>
      <point x="78" y="357" type="curve" smooth="yes"/>
      <point x="78" y="160"/>
      <point x="-150" y="-16"/>
    </contour>
    <contour>
      <point x="347" y="63" type="curve" smooth="yes"/>
      <point x="262" y="63"/>
      <point x="233" y="136"/>
      <point x="233" y="355" type="curve" smooth="yes"/>
      <point x="233" y="566"/>
      <point x="262" y="636"/>
      <point x="347" y="636" type="curve" smooth="yes"/>
      <point x="430" y="636"/>
      <point x="457" y="566"/>
      <point x="457" y="355" type="curve" smooth="yes"/>
      <point x="457" y="136"/>
      <point x="430" y="63"/>
    </contour>
  </outline>
</glyph>
<glyph name="E" format="2">
  <advance width="567"/>
  <unicode hex="0045"/>
  <outline>
    <contour>
      <point x="124" y="-16" type="curve" smooth="yes"/>
      <point x="128" y="-16"/>
      <point x="371" y="-6"/>
      <point x="447" y="-16" type="curve" smooth="yes"/>
      <point x="566" y="-32"/>
      <point x="581" y="161"/>
      <point x="437" y="161" type="curve" smooth="yes"/>
      <point x="364" y="161"/>
      <point x="315" y="118"/>
      <point x="231" y="118" type="curve" smooth="yes"/>
      <point x="186" y="118"/>
      <point x="194" y="240"/>
      <point x="186" y="309" type="curve"/>
      <point x="259" y="309"/>
      <point x="314" y="292"/>
      <point x="369" y="292" type="curve" smooth="yes"/>
      <point x="493" y="292"/>
      <point x="493" y="429"/>
      <point x="369" y="429" type="curve" smooth="yes"/>
      <point x="314" y="429"/>
      <point x="258" y="412"/>
      <point x="185" y="412" type="curve"/>
      <point x="191" y="482"/>
      <point x="176" y="593"/>
      <point x="231" y="593" type="curve" smooth="yes"/>
      <point x="319" y="593"/>
      <point x="362" y="549"/>
      <point x="437" y="549" type="curve" smooth="yes"/>
      <point x="573" y="549"/>
      <point x="576" y="716"/>
      <point x="447" y="716" type="curve" smooth="yes"/>
      <point x="372" y="716"/>
      <point x="342" y="690"/>
      <point x="149" y="713" type="curve"/>
      <point x="140" y="715"/>
      <point x="132" y="716"/>
      <point x="124" y="716" type="curve" smooth="yes"/>
      <point x="91" y="716"/>
      <point x="36" y="699"/>
      <point x="36" y="626" type="curve" smooth="yes"/>
      <point x="36" y="553"/>
      <point x="66" y="452"/>
      <point x="66" y="349" type="curve" smooth="yes"/>
      <point x="66" y="248"/>
      <point x="26" y="146"/>
      <point x="26" y="74" type="curve" smooth="yes"/>
      <point x="26" y="1"/>
      <point x="91" y="-16"/>
    </contour>
  </outline>
</glyph>
<glyph name="F" format="2">
  <advance width="567"/>
  <unicode hex="0046"/>
  <outline>
    <contour>
      <point x="26" y="74" type="curve" smooth="yes"/>
      <point x="26" y="-49"/>
      <point x="243" y="-43"/>
      <point x="243" y="74" type="curve" smooth="yes"/>
      <point x="243" y="134"/>
      <point x="195" y="215"/>
      <point x="186" y="299" type="curve"/>
      <point x="262" y="299"/>
      <point x="334" y="282"/>
      <point x="389" y="282" type="curve" smooth="yes"/>
      <point x="452" y="282"/>
      <point x="469" y="318"/>
      <point x="469" y="351" type="curve" smooth="yes"/>
      <point x="469" y="384"/>
      <point x="452" y="419"/>
      <point x="389" y="419" type="curve" smooth="yes"/>
      <point x="334" y="419"/>
      <point x="262" y="402"/>
      <point x="185" y="402" type="curve"/>
      <point x="191" y="472"/>
      <point x="176" y="593"/>
      <point x="231" y="593" type="curve" smooth="yes"/>
      <point x="319" y="593"/>
      <point x="362" y="549"/>
      <point x="437" y="549" type="curve" smooth="yes"/>
      <point x="579" y="549"/>
      <point x="569" y="716"/>
      <point x="447" y="716" type="curve" smooth="yes"/>
      <point x="372" y="716"/>
      <point x="342" y="690"/>
      <point x="149" y="713" type="curve"/>
      <point x="140" y="715"/>
      <point x="132" y="716"/>
      <point x="124" y="716" type="curve" smooth="yes"/>
      <point x="91" y="716"/>
      <point x="36" y="699"/>
      <point x="36" y="626" type="curve" smooth="yes"/>
      <point x="36" y="553"/>
      <point x="66" y="452"/>
      <point x="66" y="349" type="curve" smooth="yes"/>
      <point x="66" y="248"/>
      <point x="26" y="146"/>
    </contour>
  </outline>
</glyph>
<glyph name="G" format="2">
  <advance width="727"/>
  <unicode hex="0047"/>
  <outline>
    <contour>
      <point x="386" y="-26" type="curve" smooth="yes"/>
      <point x="564" y="-26"/>
      <point x="703" y="60"/>
      <point x="703" y="189" type="curve" smooth="yes"/>
      <point x="703" y="264"/>
      <point x="726" y="316"/>
      <point x="656" y="331" type="curve" smooth="yes"/>
      <point x="610" y="341"/>
      <point x="503" y="340"/>
      <point x="435" y="331" type="curve" smooth="yes"/>
      <point x="375" y="323"/>
      <point x="367" y="218"/>
      <point x="435" y="218" type="curve" smooth="yes"/>
      <point x="522" y="218"/>
      <point x="522" y="218"/>
      <point x="523" y="169" type="curve" smooth="yes"/>
      <point x="523" y="157"/>
      <point x="539" y="53"/>
      <point x="390" y="53" type="curve" smooth="yes"/>
      <point x="284" y="53"/>
      <point x="255" y="105"/>
      <point x="255" y="360" type="curve" smooth="yes"/>
      <point x="255" y="596"/>
      <point x="280" y="646"/>
      <point x="364" y="646" type="curve" smooth="yes"/>
      <point x="507" y="646"/>
      <point x="419" y="501"/>
      <point x="462" y="433" type="curve"/>
      <point x="535" y="330"/>
      <point x="749" y="449"/>
      <point x="655" y="596" type="curve" smooth="yes"/>
      <point x="608" y="670"/>
      <point x="498" y="726"/>
      <point x="365" y="726" type="curve" smooth="yes"/>
      <point x="132" y="726"/>
      <point x="20" y="554"/>
      <point x="20" y="353" type="curve" smooth="yes"/>
      <point x="20" y="160"/>
      <point x="124" y="-26"/>
    </contour>
  </outline>
</glyph>
<glyph name="H" format="2">
  <advance width="648"/>
  <unicode hex="0048"/>
  <outline>
    <contour>
      <point x="515" y="-16" type="curve" smooth="yes"/>
      <point x="546" y="-16"/>
      <point x="622" y="-1"/>
      <point x="622" y="79" type="curve" smooth="yes"/>
      <point x="622" y="143"/>
      <point x="572" y="247"/>
      <point x="572" y="352" type="curve" smooth="yes"/>
      <point x="572" y="446"/>
      <point x="612" y="560"/>
      <point x="612" y="622" type="curve" smooth="yes"/>
      <point x="612" y="701"/>
      <point x="546" y="716"/>
      <point x="514" y="716" type="curve" smooth="yes"/>
      <point x="468" y="716"/>
      <point x="415" y="686"/>
      <point x="415" y="635" type="curve" smooth="yes"/>
      <point x="415" y="580"/>
      <point x="475" y="492"/>
      <point x="446" y="461" type="curve" smooth="yes"/>
      <point x="413" y="426"/>
      <point x="234" y="427"/>
      <point x="202" y="461" type="curve" smooth="yes"/>
      <point x="173" y="492"/>
      <point x="233" y="580"/>
      <point x="233" y="634" type="curve" smooth="yes"/>
      <point x="233" y="686"/>
      <point x="179" y="716"/>
      <point x="133" y="716" type="curve" smooth="yes"/>
      <point x="101" y="716"/>
      <point x="36" y="701"/>
      <point x="36" y="621" type="curve" smooth="yes"/>
      <point x="36" y="559"/>
      <point x="76" y="446"/>
      <point x="76" y="352" type="curve" smooth="yes"/>
      <point x="76" y="247"/>
      <point x="26" y="143"/>
      <point x="26" y="78" type="curve" smooth="yes"/>
      <point x="26" y="-1"/>
      <point x="101" y="-16"/>
      <point x="132" y="-16" type="curve" smooth="yes"/>
      <point x="166" y="-16"/>
      <point x="243" y="1"/>
      <point x="243" y="73" type="curve" smooth="yes"/>
      <point x="243" y="130"/>
      <point x="195" y="226"/>
      <point x="195" y="274" type="curve" smooth="yes"/>
      <point x="195" y="384"/>
      <point x="453" y="384"/>
      <point x="453" y="274" type="curve" smooth="yes"/>
      <point x="453" y="226"/>
      <point x="405" y="130"/>
      <point x="405" y="73" type="curve" smooth="yes"/>
      <point x="405" y="1"/>
      <point x="481" y="-16"/>
    </contour>
  </outline>
</glyph>
<glyph name="I" format="2">
  <advance width="269"/>
  <unicode hex="0049"/>
  <outline>
    <contour>
      <point x="134" y="-16" type="curve" smooth="yes"/>
      <point x="167" y="-16"/>
      <point x="243" y="1"/>
      <point x="243" y="74" type="curve" smooth="yes"/>
      <point x="243" y="146"/>
      <point x="193" y="248"/>
      <point x="193" y="349" type="curve" smooth="yes"/>
      <point x="193" y="452"/>
      <point x="233" y="553"/>
      <point x="233" y="626" type="curve" smooth="yes"/>
      <point x="233" y="699"/>
      <point x="167" y="716"/>
      <point x="134" y="716" type="curve" smooth="yes"/>
      <point x="101" y="716"/>
      <point x="36" y="699"/>
      <point x="36" y="626" type="curve" smooth="yes"/>
      <point x="36" y="553"/>
      <point x="76" y="452"/>
      <point x="76" y="349" type="curve" smooth="yes"/>
      <point x="76" y="248"/>
      <point x="26" y="146"/>
      <point x="26" y="74" type="curve" smooth="yes"/>
      <point x="26" y="1"/>
      <point x="101" y="-16"/>
    </contour>
  </outline>
</glyph>
<glyph name="J" format="2">
  <advance width="509"/>
  <unicode hex="004A"/>
  <outline>
    <contour>
      <point x="263" y="-26" type="curve" smooth="yes"/>
      <point x="622" y="-26"/>
      <point x="417" y="337"/>
      <point x="479" y="585" type="curve" smooth="yes"/>
      <point x="519" y="745"/>
      <point x="267" y="766"/>
      <point x="285" y="605" type="curve" smooth="yes"/>
      <point x="308" y="397"/>
      <point x="428" y="98"/>
      <point x="261" y="98" type="curve" smooth="yes"/>
      <point x="163" y="98"/>
      <point x="212" y="231"/>
      <point x="104" y="231" type="curve" smooth="yes"/>
      <point x="30" y="231"/>
      <point x="20" y="144"/>
      <point x="20" y="122" type="curve" smooth="yes"/>
      <point x="20" y="26"/>
      <point x="104" y="-26"/>
    </contour>
  </outline>
</glyph>
<glyph name="K" format="2">
  <advance width="676"/>
  <unicode hex="004B"/>
  <outline>
    <contour>
      <point x="134" y="-16" type="curve" smooth="yes"/>
      <point x="167" y="-16"/>
      <point x="243" y="1"/>
      <point x="243" y="74" type="curve" smooth="yes"/>
      <point x="243" y="147"/>
      <point x="167" y="275"/>
      <point x="229" y="275" type="curve" smooth="yes"/>
      <point x="336" y="275"/>
      <point x="404" y="74"/>
      <point x="452" y="28" type="curve" smooth="yes"/>
      <point x="530" y="-47"/>
      <point x="593" y="-8"/>
      <point x="617" y="15" type="curve" smooth="yes"/>
      <point x="640" y="39"/>
      <point x="682" y="104"/>
      <point x="608" y="178" type="curve" smooth="yes"/>
      <point x="554" y="232"/>
      <point x="375" y="327"/>
      <point x="362" y="352" type="curve" smooth="yes"/>
      <point x="326" y="424"/>
      <point x="557" y="534"/>
      <point x="613" y="592" type="curve" smooth="yes"/>
      <point x="674" y="656"/>
      <point x="560" y="751"/>
      <point x="472" y="704" type="curve" smooth="yes"/>
      <point x="391" y="661"/>
      <point x="217" y="316"/>
      <point x="196" y="397" type="curve" smooth="yes"/>
      <point x="174" y="481"/>
      <point x="243" y="564"/>
      <point x="243" y="626" type="curve" smooth="yes"/>
      <point x="243" y="699"/>
      <point x="167" y="716"/>
      <point x="134" y="716" type="curve" smooth="yes"/>
      <point x="101" y="716"/>
      <point x="26" y="699"/>
      <point x="26" y="626" type="curve" smooth="yes"/>
      <point x="26" y="553"/>
      <point x="76" y="452"/>
      <point x="76" y="349" type="curve" smooth="yes"/>
      <point x="76" y="248"/>
      <point x="26" y="146"/>
      <point x="26" y="74" type="curve" smooth="yes"/>
      <point x="26" y="1"/>
      <point x="101" y="-16"/>
    </contour>
  </outline>
</glyph>
<glyph name="L" format="2">
  <advance width="557"/>
  <unicode hex="004C"/>
  <outline>
    <contour>
      <point x="124" y="-16" type="curve" smooth="yes"/>
      <point x="342" y="4"/>
      <point x="361" y="-16"/>
      <point x="437" y="-16" type="curve" smooth="yes"/>
      <point x="569" y="-16"/>
      <point x="559" y="174"/>
      <point x="427" y="174" type="curve" smooth="yes"/>
      <point x="355" y="174"/>
      <point x="333" y="127"/>
      <point x="251" y="128" type="curve" smooth="yes"/>
      <point x="152" y="129"/>
      <point x="183" y="263"/>
      <point x="193" y="349" type="curve" smooth="yes"/>
      <point x="204" y="444"/>
      <point x="233" y="553"/>
      <point x="233" y="626" type="curve" smooth="yes"/>
      <point x="233" y="735"/>
      <point x="36" y="758"/>
      <point x="36" y="626" type="curve" smooth="yes"/>
      <point x="36" y="553"/>
      <point x="66" y="452"/>
      <point x="66" y="349" type="curve" smooth="yes"/>
      <point x="66" y="248"/>
      <point x="26" y="146"/>
      <point x="26" y="74" type="curve" smooth="yes"/>
      <point x="26" y="1"/>
      <point x="91" y="-19"/>
    </contour>
  </outline>
</glyph>
<glyph name="M" format="2">
  <advance width="870"/>
  <unicode hex="004D"/>
  <outline>
    <contour>
      <point x="134" y="-16" type="curve" smooth="yes"/>
      <point x="167" y="-16"/>
      <point x="243" y="1"/>
      <point x="243" y="74" type="curve" smooth="yes"/>
      <point x="243" y="146"/>
      <point x="176" y="418"/>
      <point x="199" y="418" type="curve" smooth="yes"/>
      <point x="241" y="418"/>
      <point x="256" y="355"/>
      <point x="268" y="312" type="curve" smooth="yes"/>
      <point x="295" y="218"/>
      <point x="322" y="94"/>
      <point x="362" y="26" type="curve" smooth="yes"/>
      <point x="385" y="-12"/>
      <point x="407" y="-16"/>
      <point x="435" y="-16" type="curve" smooth="yes"/>
      <point x="463" y="-16"/>
      <point x="485" y="-12"/>
      <point x="508" y="26" type="curve" smooth="yes"/>
      <point x="548" y="94"/>
      <point x="575" y="218"/>
      <point x="602" y="312" type="curve" smooth="yes"/>
      <point x="614" y="355"/>
      <point x="629" y="418"/>
      <point x="671" y="418" type="curve" smooth="yes"/>
      <point x="695" y="418"/>
      <point x="627" y="146"/>
      <point x="627" y="74" type="curve" smooth="yes"/>
      <point x="627" y="1"/>
      <point x="703" y="-16"/>
      <point x="736" y="-16" type="curve" smooth="yes"/>
      <point x="769" y="-16"/>
      <point x="844" y="1"/>
      <point x="844" y="74" type="curve" smooth="yes"/>
      <point x="844" y="146"/>
      <point x="784" y="248"/>
      <point x="784" y="349" type="curve" smooth="yes"/>
      <point x="784" y="452"/>
      <point x="804" y="553"/>
      <point x="804" y="626" type="curve" smooth="yes"/>
      <point x="804" y="699"/>
      <point x="759" y="716"/>
      <point x="725" y="716" type="curve" smooth="yes"/>
      <point x="690" y="716"/>
      <point x="658" y="720"/>
      <point x="629" y="690" type="curve" smooth="yes"/>
      <point x="568" y="626"/>
      <point x="508" y="249"/>
      <point x="435" y="249" type="curve" smooth="yes"/>
      <point x="362" y="249"/>
      <point x="302" y="626"/>
      <point x="241" y="690" type="curve" smooth="yes"/>
      <point x="212" y="720"/>
      <point x="180" y="716"/>
      <point x="145" y="716" type="curve" smooth="yes"/>
      <point x="111" y="716"/>
      <point x="66" y="699"/>
      <point x="66" y="626" type="curve" smooth="yes"/>
      <point x="66" y="553"/>
      <point x="86" y="452"/>
      <point x="86" y="349" type="curve" smooth="yes"/>
      <point x="86" y="248"/>
      <point x="26" y="146"/>
      <point x="26" y="74" type="curve" smooth="yes"/>
      <point x="26" y="1"/>
      <point x="101" y="-16"/>
    </contour>
  </outline>
</glyph>
<glyph name="N" format="2">
  <advance width="674"/>
  <unicode hex="004E"/>
  <outline>
    <contour>
      <point x="122" y="-16" type="curve" smooth="yes"/>
      <point x="158" y="-16"/>
      <point x="231" y="4"/>
      <point x="223" y="74" type="curve" smooth="yes"/>
      <point x="193" y="336"/>
      <point x="202" y="434"/>
      <point x="219" y="418" type="curve" smooth="yes"/>
      <point x="326" y="319"/>
      <point x="363" y="-16"/>
      <point x="562" y="-16" type="curve" smooth="yes"/>
      <point x="600" y="-16"/>
      <point x="628" y="-4"/>
      <point x="628" y="75" type="curve" smooth="yes"/>
      <point x="628" y="141"/>
      <point x="608" y="258"/>
      <point x="608" y="341" type="curve" smooth="yes"/>
      <point x="608" y="458"/>
      <point x="648" y="556"/>
      <point x="648" y="620" type="curve" smooth="yes"/>
      <point x="648" y="702"/>
      <point x="583" y="716"/>
      <point x="547" y="716" type="curve" smooth="yes"/>
      <point x="507" y="716"/>
      <point x="451" y="698"/>
      <point x="451" y="627" type="curve" smooth="yes"/>
      <point x="451" y="362"/>
      <point x="487" y="279"/>
      <point x="459" y="279" type="curve" smooth="yes"/>
      <point x="396" y="279"/>
      <point x="297" y="716"/>
      <point x="116" y="716" type="curve" smooth="yes"/>
      <point x="75" y="716"/>
      <point x="46" y="694"/>
      <point x="46" y="622" type="curve" smooth="yes"/>
      <point x="46" y="562"/>
      <point x="66" y="440"/>
      <point x="66" y="358" type="curve" smooth="yes"/>
      <point x="66" y="241"/>
      <point x="26" y="144"/>
      <point x="26" y="80" type="curve" smooth="yes"/>
      <point x="26" y="-2"/>
      <point x="92" y="-16"/>
    </contour>
  </outline>
</glyph>
<glyph name="O" format="2">
  <advance width="734"/>
  <unicode hex="004F"/>
  <outline>
    <contour>
      <point x="368" y="-26" type="curve" smooth="yes"/>
      <point x="602" y="-26"/>
      <point x="714" y="160"/>
      <point x="714" y="357" type="curve" smooth="yes"/>
      <point x="714" y="556"/>
      <point x="602" y="726"/>
      <point x="368" y="726" type="curve" smooth="yes"/>
      <point x="132" y="726"/>
      <point x="20" y="555"/>
      <point x="20" y="357" type="curve" smooth="yes"/>
      <point x="20" y="160"/>
      <point x="132" y="-26"/>
    </contour>
    <contour>
      <point x="369" y="53" type="curve" smooth="yes"/>
      <point x="284" y="53"/>
      <point x="255" y="129"/>
      <point x="255" y="355" type="curve" smooth="yes"/>
      <point x="255" y="573"/>
      <point x="284" y="646"/>
      <point x="369" y="646" type="curve" smooth="yes"/>
      <point x="452" y="646"/>
      <point x="479" y="573"/>
      <point x="479" y="355" type="curve" smooth="yes"/>
      <point x="479" y="129"/>
      <point x="452" y="53"/>
    </contour>
  </outline>
</glyph>
<glyph name="P" format="2">
  <advance width="583"/>
  <unicode hex="0050"/>
  <outline>
    <contour>
      <point x="134" y="-16" type="curve" smooth="yes"/>
      <point x="184" y="-16"/>
      <point x="243" y="16"/>
      <point x="243" y="66" type="curve" smooth="yes"/>
      <point x="243" y="123"/>
      <point x="167" y="231"/>
      <point x="235" y="231" type="curve" smooth="yes"/>
      <point x="320" y="231" type="line" smooth="yes"/>
      <point x="470" y="231"/>
      <point x="563" y="380"/>
      <point x="563" y="477" type="curve" smooth="yes"/>
      <point x="563" y="576"/>
      <point x="470" y="716"/>
      <point x="320" y="716" type="curve" smooth="yes"/>
      <point x="164" y="716" type="line" smooth="yes"/>
      <point x="132" y="716"/>
      <point x="36" y="704"/>
      <point x="36" y="618" type="curve" smooth="yes"/>
      <point x="36" y="563"/>
      <point x="76" y="485"/>
      <point x="76" y="392" type="curve" smooth="yes"/>
      <point x="76" y="287"/>
      <point x="26" y="143"/>
      <point x="26" y="78" type="curve" smooth="yes"/>
      <point x="26" y="-1"/>
      <point x="100" y="-16"/>
    </contour>
    <contour>
      <point x="295" y="290" type="curve" smooth="yes"/>
      <point x="231" y="290"/>
      <point x="209" y="339"/>
      <point x="209" y="475" type="curve" smooth="yes"/>
      <point x="209" y="610"/>
      <point x="231" y="657"/>
      <point x="295" y="657" type="curve" smooth="yes"/>
      <point x="356" y="657"/>
      <point x="375" y="615"/>
      <point x="375" y="475" type="curve" smooth="yes"/>
      <point x="375" y="334"/>
      <point x="356" y="290"/>
    </contour>
  </outline>
</glyph>
<glyph name="Q" format="2">
  <advance width="735"/>
  <unicode hex="0051"/>
  <outline>
    <contour>
      <point x="588" y="-107" type="curve" smooth="yes"/>
      <point x="756" y="-107"/>
      <point x="738" y="92"/>
      <point x="648" y="33" type="curve" smooth="yes"/>
      <point x="542" y="-36"/>
      <point x="527" y="43"/>
      <point x="389" y="43" type="curve" smooth="yes"/>
      <point x="289" y="43"/>
      <point x="255" y="119"/>
      <point x="255" y="347" type="curve" smooth="yes"/>
      <point x="255" y="571"/>
      <point x="284" y="646"/>
      <point x="369" y="646" type="curve" smooth="yes"/>
      <point x="452" y="646"/>
      <point x="479" y="573"/>
      <point x="479" y="355" type="curve" smooth="yes"/>
      <point x="479" y="168"/>
      <point x="451" y="136"/>
      <point x="451" y="100" type="curve" smooth="yes"/>
      <point x="451" y="65"/>
      <point x="523" y="39"/>
      <point x="570" y="50" type="curve" smooth="yes"/>
      <point x="655" y="70"/>
      <point x="714" y="230"/>
      <point x="714" y="366" type="curve" smooth="yes"/>
      <point x="714" y="553"/>
      <point x="602" y="726"/>
      <point x="367" y="726" type="curve" smooth="yes"/>
      <point x="132" y="726"/>
      <point x="20" y="552"/>
      <point x="20" y="363" type="curve" smooth="yes"/>
      <point x="20" y="157"/>
      <point x="152" y="-34"/>
      <point x="388" y="-36" type="curve" smooth="yes"/>
      <point x="531" y="-37"/>
      <point x="488" y="-107"/>
    </contour>
  </outline>
</glyph>
<glyph name="R" format="2">
  <advance width="599"/>
  <unicode hex="0052"/>
  <outline>
    <contour>
      <point x="130" y="-16" type="curve" smooth="yes"/>
      <point x="179" y="-16"/>
      <point x="239" y="15"/>
      <point x="239" y="66" type="curve" smooth="yes"/>
      <point x="239" y="123"/>
      <point x="163" y="231"/>
      <point x="231" y="231" type="curve" smooth="yes"/>
      <point x="317" y="231"/>
      <point x="321" y="220"/>
      <point x="329" y="198" type="curve" smooth="yes"/>
      <point x="359" y="116"/>
      <point x="368" y="66"/>
      <point x="393" y="29" type="curve" smooth="yes"/>
      <point x="437" y="-36"/>
      <point x="506" y="-16"/>
      <point x="533" y="0" type="curve" smooth="yes"/>
      <point x="577" y="26"/>
      <point x="594" y="90"/>
      <point x="564" y="128" type="curve" smooth="yes"/>
      <point x="534" y="166"/>
      <point x="413" y="232"/>
      <point x="482" y="286" type="curve" smooth="yes"/>
      <point x="500" y="300"/>
      <point x="569" y="361"/>
      <point x="569" y="462" type="curve" smooth="yes"/>
      <point x="569" y="590"/>
      <point x="459" y="716"/>
      <point x="316" y="716" type="curve" smooth="yes"/>
      <point x="160" y="716" type="line" smooth="yes"/>
      <point x="115" y="716"/>
      <point x="32" y="699"/>
      <point x="32" y="616" type="curve" smooth="yes"/>
      <point x="32" y="566"/>
      <point x="62" y="444"/>
      <point x="62" y="351" type="curve" smooth="yes"/>
      <point x="62" y="249"/>
      <point x="26" y="140"/>
      <point x="26" y="81" type="curve" smooth="yes"/>
      <point x="26" y="-3"/>
      <point x="98" y="-16"/>
    </contour>
    <contour>
      <point x="297" y="290" type="curve" smooth="yes"/>
      <point x="229" y="290"/>
      <point x="205" y="340"/>
      <point x="205" y="476" type="curve" smooth="yes"/>
      <point x="205" y="611"/>
      <point x="229" y="657"/>
      <point x="297" y="657" type="curve" smooth="yes"/>
      <point x="361" y="657"/>
      <point x="381" y="615"/>
      <point x="381" y="475" type="curve" smooth="yes"/>
      <point x="381" y="335"/>
      <point x="361" y="290"/>
    </contour>
  </outline>
</glyph>
<glyph name="S" format="2">
  <advance width="617"/>
  <unicode hex="0053"/>
  <outline>
    <contour>
      <point x="387" y="-13" type="curve" smooth="yes"/>
      <point x="545" y="15"/>
      <point x="599" y="144"/>
      <point x="569" y="236" type="curve" smooth="yes"/>
      <point x="510" y="415"/>
      <point x="127" y="477"/>
      <point x="192" y="603" type="curve" smooth="yes"/>
      <point x="257" y="729"/>
      <point x="505" y="347"/>
      <point x="581" y="543" type="curve" smooth="yes"/>
      <point x="649" y="717"/>
      <point x="350" y="738"/>
      <point x="215" y="706" type="curve" smooth="yes"/>
      <point x="38" y="664"/>
      <point x="20" y="511"/>
      <point x="91" y="415" type="curve" smooth="yes"/>
      <point x="189" y="282"/>
      <point x="480" y="212"/>
      <point x="425" y="105" type="curve" smooth="yes"/>
      <point x="360" y="-21"/>
      <point x="112" y="359"/>
      <point x="36" y="164" type="curve" smooth="yes"/>
      <point x="-32" y="-10"/>
      <point x="260" y="-36"/>
    </contour>
  </outline>
</glyph>
<glyph name="T" format="2">
  <advance width="641"/>
  <unicode hex="0054"/>
  <outline>
    <contour>
      <point x="319" y="-16" type="curve" smooth="yes"/>
      <point x="351" y="-16"/>
      <point x="428" y="-2"/>
      <point x="428" y="78" type="curve" smooth="yes"/>
      <point x="428" y="194"/>
      <point x="314" y="535"/>
      <point x="414" y="535" type="curve" smooth="yes"/>
      <point x="442" y="535"/>
      <point x="489" y="520"/>
      <point x="535" y="520" type="curve" smooth="yes"/>
      <point x="608" y="520"/>
      <point x="615" y="558"/>
      <point x="615" y="596" type="curve" smooth="yes"/>
      <point x="615" y="634"/>
      <point x="608" y="700"/>
      <point x="527" y="700" type="curve" smooth="yes"/>
      <point x="472" y="700"/>
      <point x="416" y="670"/>
      <point x="319" y="670" type="curve" smooth="yes"/>
      <point x="221" y="670"/>
      <point x="169" y="700"/>
      <point x="114" y="700" type="curve" smooth="yes"/>
      <point x="33" y="700"/>
      <point x="26" y="633"/>
      <point x="26" y="596" type="curve" smooth="yes"/>
      <point x="26" y="558"/>
      <point x="33" y="520"/>
      <point x="107" y="520" type="curve" smooth="yes"/>
      <point x="153" y="520"/>
      <point x="197" y="535"/>
      <point x="225" y="535" type="curve" smooth="yes"/>
      <point x="325" y="535"/>
      <point x="211" y="195"/>
      <point x="211" y="79" type="curve" smooth="yes"/>
      <point x="211" y="-2"/>
      <point x="287" y="-16"/>
    </contour>
  </outline>
</glyph>
<glyph name="U" format="2">
  <advance width="668"/>
  <unicode hex="0055"/>
  <outline>
    <contour>
      <point x="334" y="-26" type="curve" smooth="yes"/>
      <point x="738" y="-26"/>
      <point x="576" y="337"/>
      <point x="638" y="585" type="curve" smooth="yes"/>
      <point x="657" y="661"/>
      <point x="608" y="716"/>
      <point x="540" y="716" type="curve" smooth="yes"/>
      <point x="534" y="716"/>
      <point x="414" y="719"/>
      <point x="437" y="605" type="curve" smooth="yes"/>
      <point x="479" y="397"/>
      <point x="538" y="110"/>
      <point x="335" y="110" type="curve" smooth="yes"/>
      <point x="130" y="110"/>
      <point x="190" y="397"/>
      <point x="232" y="605" type="curve" smooth="yes"/>
      <point x="255" y="719"/>
      <point x="134" y="716"/>
      <point x="128" y="716" type="curve" smooth="yes"/>
      <point x="60" y="716"/>
      <point x="11" y="661"/>
      <point x="30" y="585" type="curve" smooth="yes"/>
      <point x="92" y="337"/>
      <point x="-70" y="-26"/>
    </contour>
  </outline>
</glyph>
<glyph name="V" format="2">
  <advance width="676"/>
  <unicode hex="0056"/>
  <outline>
    <contour>
      <point x="338" y="-16" type="curve" smooth="yes"/>
      <point x="392" y="-16"/>
      <point x="403" y="-14"/>
      <point x="424" y="34" type="curve" smooth="yes"/>
      <point x="451" y="96"/>
      <point x="487" y="186"/>
      <point x="513" y="278" type="curve" smooth="yes"/>
      <point x="545" y="392"/>
      <point x="602" y="486"/>
      <point x="638" y="567" type="curve" smooth="yes"/>
      <point x="668" y="638"/>
      <point x="638" y="689"/>
      <point x="608" y="703" type="curve" smooth="yes"/>
      <point x="578" y="717"/>
      <point x="482" y="735"/>
      <point x="451" y="665" type="curve" smooth="yes"/>
      <point x="416" y="585"/>
      <point x="434" y="444"/>
      <point x="409" y="330" type="curve" smooth="yes"/>
      <point x="400" y="289"/>
      <point x="390" y="201"/>
      <point x="338" y="201" type="curve" smooth="yes"/>
      <point x="286" y="201"/>
      <point x="276" y="289"/>
      <point x="267" y="330" type="curve" smooth="yes"/>
      <point x="242" y="444"/>
      <point x="260" y="585"/>
      <point x="225" y="665" type="curve" smooth="yes"/>
      <point x="194" y="735"/>
      <point x="98" y="717"/>
      <point x="68" y="703" type="curve" smooth="yes"/>
      <point x="38" y="689"/>
      <point x="8" y="638"/>
      <point x="38" y="567" type="curve" smooth="yes"/>
      <point x="74" y="486"/>
      <point x="131" y="392"/>
      <point x="163" y="278" type="curve" smooth="yes"/>
      <point x="189" y="186"/>
      <point x="225" y="96"/>
      <point x="252" y="34" type="curve" smooth="yes"/>
      <point x="273" y="-14"/>
      <point x="284" y="-16"/>
    </contour>
  </outline>
</glyph>
<glyph name="W" format="2">
  <advance width="953"/>
  <unicode hex="0057"/>
  <outline>
    <contour>
      <point x="352" y="-16" type="curve" smooth="yes"/>
      <point x="386" y="-16"/>
      <point x="417" y="-7"/>
      <point x="438" y="34" type="curve" smooth="yes"/>
      <point x="452" y="62"/>
      <point x="471" y="99"/>
      <point x="482" y="138" type="curve"/>
      <point x="493" y="99"/>
      <point x="512" y="62"/>
      <point x="526" y="34" type="curve" smooth="yes"/>
      <point x="547" y="-7"/>
      <point x="578" y="-16"/>
      <point x="612" y="-16" type="curve" smooth="yes"/>
      <point x="646" y="-16"/>
      <point x="677" y="-7"/>
      <point x="698" y="34" type="curve" smooth="yes"/>
      <point x="729" y="95"/>
      <point x="753" y="186"/>
      <point x="779" y="278" type="curve" smooth="yes"/>
      <point x="811" y="392"/>
      <point x="883" y="486"/>
      <point x="919" y="567" type="curve" smooth="yes"/>
      <point x="968" y="683"/>
      <point x="776" y="780"/>
      <point x="725" y="665" type="curve" smooth="yes"/>
      <point x="690" y="585"/>
      <point x="714" y="443"/>
      <point x="683" y="330" type="curve" smooth="yes"/>
      <point x="674" y="299"/>
      <point x="644" y="201"/>
      <point x="612" y="201" type="curve" smooth="yes"/>
      <point x="572" y="201"/>
      <point x="552" y="367"/>
      <point x="552" y="407" type="curve" smooth="yes"/>
      <point x="552" y="530"/>
      <point x="412" y="530"/>
      <point x="412" y="407" type="curve" smooth="yes"/>
      <point x="412" y="367"/>
      <point x="392" y="201"/>
      <point x="352" y="201" type="curve" smooth="yes"/>
      <point x="320" y="201"/>
      <point x="290" y="299"/>
      <point x="281" y="330" type="curve" smooth="yes"/>
      <point x="250" y="443"/>
      <point x="274" y="585"/>
      <point x="239" y="665" type="curve" smooth="yes"/>
      <point x="189" y="779"/>
      <point x="-7" y="687"/>
      <point x="44" y="567" type="curve" smooth="yes"/>
      <point x="80" y="486"/>
      <point x="153" y="392"/>
      <point x="185" y="278" type="curve" smooth="yes"/>
      <point x="211" y="186"/>
      <point x="235" y="95"/>
      <point x="266" y="34" type="curve" smooth="yes"/>
      <point x="287" y="-7"/>
      <point x="318" y="-16"/>
    </contour>
  </outline>
</glyph>
<glyph name="X" format="2">
  <advance width="664"/>
  <unicode hex="0058"/>
  <outline>
    <contour>
      <point x="61" y="15" type="curve" smooth="yes"/>
      <point x="87" y="-7"/>
      <point x="142" y="-43"/>
      <point x="197" y="19" type="curve" smooth="yes"/>
      <point x="239" y="67"/>
      <point x="280" y="239"/>
      <point x="335" y="239" type="curve" smooth="yes"/>
      <point x="390" y="239"/>
      <point x="427" y="66"/>
      <point x="467" y="20" type="curve" smooth="yes"/>
      <point x="522" y="-42"/>
      <point x="577" y="-6"/>
      <point x="603" y="16" type="curve" smooth="yes"/>
      <point x="632" y="39"/>
      <point x="652" y="126"/>
      <point x="599" y="188" type="curve" smooth="yes"/>
      <point x="552" y="242"/>
      <point x="482" y="288"/>
      <point x="413" y="355" type="curve"/>
      <point x="483" y="423"/>
      <point x="551" y="469"/>
      <point x="598" y="522" type="curve" smooth="yes"/>
      <point x="652" y="584"/>
      <point x="648" y="656"/>
      <point x="608" y="684" type="curve" smooth="yes"/>
      <point x="579" y="705"/>
      <point x="524" y="744"/>
      <point x="468" y="681" type="curve" smooth="yes"/>
      <point x="426" y="632"/>
      <point x="386" y="461"/>
      <point x="329" y="461" type="curve" smooth="yes"/>
      <point x="274" y="461"/>
      <point x="238" y="634"/>
      <point x="198" y="681" type="curve" smooth="yes"/>
      <point x="142" y="744"/>
      <point x="87" y="704"/>
      <point x="58" y="684" type="curve" smooth="yes"/>
      <point x="17" y="655"/>
      <point x="12" y="574"/>
      <point x="66" y="512" type="curve" smooth="yes"/>
      <point x="113" y="459"/>
      <point x="181" y="413"/>
      <point x="251" y="345" type="curve"/>
      <point x="182" y="278"/>
      <point x="112" y="232"/>
      <point x="65" y="178" type="curve" smooth="yes"/>
      <point x="12" y="116"/>
      <point x="32" y="38"/>
    </contour>
  </outline>
</glyph>
<glyph name="Y" format="2">
  <advance width="654"/>
  <unicode hex="0059"/>
  <outline>
    <contour>
      <point x="333" y="-16" type="curve" smooth="yes"/>
      <point x="366" y="-16"/>
      <point x="442" y="1"/>
      <point x="442" y="74" type="curve" smooth="yes"/>
      <point x="442" y="141"/>
      <point x="393" y="234"/>
      <point x="393" y="327" type="curve" smooth="yes"/>
      <point x="393" y="399"/>
      <point x="560" y="462"/>
      <point x="613" y="522" type="curve" smooth="yes"/>
      <point x="667" y="584"/>
      <point x="653" y="656"/>
      <point x="613" y="684" type="curve" smooth="yes"/>
      <point x="584" y="705"/>
      <point x="539" y="744"/>
      <point x="483" y="681" type="curve" smooth="yes"/>
      <point x="441" y="632"/>
      <point x="381" y="461"/>
      <point x="334" y="461" type="curve" smooth="yes"/>
      <point x="288" y="461"/>
      <point x="233" y="634"/>
      <point x="193" y="681" type="curve" smooth="yes"/>
      <point x="137" y="744"/>
      <point x="92" y="704"/>
      <point x="63" y="684" type="curve" smooth="yes"/>
      <point x="22" y="655"/>
      <point x="7" y="574"/>
      <point x="61" y="512" type="curve" smooth="yes"/>
      <point x="113" y="454"/>
      <point x="274" y="393"/>
      <point x="274" y="325" type="curve" smooth="yes"/>
      <point x="274" y="233"/>
      <point x="225" y="140"/>
      <point x="225" y="74" type="curve" smooth="yes"/>
      <point x="225" y="1"/>
      <point x="300" y="-16"/>
    </contour>
  </outline>
</glyph>
<glyph name="Z" format="2">
  <advance width="634"/>
  <unicode hex="005A"/>
  <outline>
    <contour>
      <point x="86" y="-16" type="curve" smooth="yes"/>
      <point x="133" y="-16"/>
      <point x="226" y="11"/>
      <point x="307" y="11" type="curve" smooth="yes"/>
      <point x="387" y="11"/>
      <point x="484" y="-16"/>
      <point x="526" y="-16" type="curve" smooth="yes"/>
      <point x="594" y="-16"/>
      <point x="608" y="55"/>
      <point x="608" y="94" type="curve" smooth="yes"/>
      <point x="608" y="132"/>
      <point x="594" y="209"/>
      <point x="534" y="209" type="curve" smooth="yes"/>
      <point x="470" y="209"/>
      <point x="308" y="124"/>
      <point x="259" y="159" type="curve" smooth="yes"/>
      <point x="179" y="216"/>
      <point x="588" y="462"/>
      <point x="588" y="603" type="curve" smooth="yes"/>
      <point x="588" y="662"/>
      <point x="591" y="716"/>
      <point x="527" y="716" type="curve" smooth="yes"/>
      <point x="482" y="716"/>
      <point x="388" y="689"/>
      <point x="307" y="689" type="curve" smooth="yes"/>
      <point x="226" y="689"/>
      <point x="156" y="716"/>
      <point x="113" y="716" type="curve" smooth="yes"/>
      <point x="45" y="716"/>
      <point x="31" y="647"/>
      <point x="31" y="608" type="curve" smooth="yes"/>
      <point x="31" y="556"/>
      <point x="55" y="511"/>
      <point x="103" y="511" type="curve" smooth="yes"/>
      <point x="168" y="511"/>
      <point x="311" y="594"/>
      <point x="353" y="552" type="curve" smooth="yes"/>
      <point x="404" y="501"/>
      <point x="26" y="255"/>
      <point x="26" y="86" type="curve" smooth="yes"/>
      <point x="26" y="33"/>
      <point x="23" y="-16"/>
    </contour>
  </outline>
</glyph>
<glyph name="a" format="2">
  <advance width="593"/>
  <unicode hex="0061"/>
  <outline>
    <contour>
      <point x="211" y="-16" type="curve" smooth="yes"/>
      <point x="308" y="-16"/>
      <point x="370" y="25"/>
      <point x="370" y="82" type="curve" smooth="yes"/>
      <point x="370" y="98"/>
      <point x="384" y="72"/>
      <point x="384" y="25" type="curve" smooth="yes"/>
      <point x="384" y="-27"/>
      <point x="594" y="-56"/>
      <point x="561" y="85" type="curve" smooth="yes"/>
      <point x="544" y="159"/>
      <point x="506" y="82"/>
      <point x="506" y="126" type="curve" smooth="yes"/>
      <point x="506" y="355"/>
      <point x="476" y="526"/>
      <point x="262" y="526" type="curve" smooth="yes"/>
      <point x="96" y="526"/>
      <point x="18" y="424"/>
      <point x="18" y="337" type="curve" smooth="yes"/>
      <point x="18" y="288"/>
      <point x="43" y="262"/>
      <point x="92" y="262" type="curve" smooth="yes"/>
      <point x="133" y="262"/>
      <point x="211" y="280"/>
      <point x="211" y="326" type="curve" smooth="yes"/>
      <point x="211" y="490"/>
      <point x="480" y="447"/>
      <point x="371" y="329" type="curve" smooth="yes"/>
      <point x="265" y="214"/>
      <point x="19" y="264"/>
      <point x="19" y="127" type="curve" smooth="yes"/>
      <point x="19" y="61"/>
      <point x="77" y="-16"/>
    </contour>
    <contour>
      <point x="176" y="126" type="curve" smooth="yes"/>
      <point x="176" y="236"/>
      <point x="371" y="268"/>
      <point x="371" y="221" type="curve" smooth="yes"/>
      <point x="371" y="29"/>
      <point x="176" y="0"/>
    </contour>
  </outline>
</glyph>
<glyph name="b" format="2">
  <advance width="577"/>
  <unicode hex="0062"/>
  <outline>
    <contour>
      <point x="127" y="-16" type="curve" smooth="yes"/>
      <point x="166" y="-16"/>
      <point x="173" y="10"/>
      <point x="205" y="10" type="curve" smooth="yes"/>
      <point x="243" y="10"/>
      <point x="259" y="-16"/>
      <point x="326" y="-16" type="curve" smooth="yes"/>
      <point x="497" y="-16"/>
      <point x="559" y="112"/>
      <point x="559" y="254" type="curve" smooth="yes"/>
      <point x="559" y="399"/>
      <point x="497" y="516"/>
      <point x="328" y="515" type="curve" smooth="yes"/>
      <point x="293" y="515"/>
      <point x="279" y="516"/>
      <point x="233" y="500" type="curve" smooth="yes"/>
      <point x="195" y="486"/>
      <point x="175" y="452"/>
      <point x="175" y="418" type="curve" smooth="yes"/>
      <point x="175" y="402"/>
      <point x="161" y="428"/>
      <point x="161" y="450" type="curve" smooth="yes"/>
      <point x="161" y="500"/>
      <point x="196" y="528"/>
      <point x="204" y="544" type="curve" smooth="yes"/>
      <point x="229" y="592"/>
      <point x="236" y="624"/>
      <point x="236" y="670" type="curve" smooth="yes"/>
      <point x="236" y="747"/>
      <point x="160" y="766"/>
      <point x="127" y="766" type="curve" smooth="yes"/>
      <point x="94" y="766"/>
      <point x="19" y="747"/>
      <point x="19" y="670" type="curve" smooth="yes"/>
      <point x="19" y="592"/>
      <point x="69" y="484"/>
      <point x="69" y="374" type="curve" smooth="yes"/>
      <point x="69" y="266"/>
      <point x="19" y="157"/>
      <point x="19" y="80" type="curve" smooth="yes"/>
      <point x="19" y="2"/>
      <point x="94" y="-16"/>
    </contour>
    <contour>
      <point x="304" y="48" type="curve" smooth="yes"/>
      <point x="249" y="48"/>
      <point x="230" y="100"/>
      <point x="230" y="254" type="curve" smooth="yes"/>
      <point x="230" y="403"/>
      <point x="249" y="452"/>
      <point x="304" y="452" type="curve" smooth="yes"/>
      <point x="358" y="452"/>
      <point x="376" y="403"/>
      <point x="376" y="254" type="curve" smooth="yes"/>
      <point x="376" y="100"/>
      <point x="358" y="48"/>
    </contour>
  </outline>
</glyph>
<glyph name="c" format="2">
  <advance width="498"/>
  <unicode hex="0063"/>
  <outline>
    <contour>
      <point x="284" y="-26" type="curve" smooth="yes"/>
      <point x="392" y="-26"/>
      <point x="464" y="37"/>
      <point x="464" y="81" type="curve" smooth="yes"/>
      <point x="464" y="107"/>
      <point x="439" y="121"/>
      <point x="418" y="121" type="curve" smooth="yes"/>
      <point x="371" y="121"/>
      <point x="389" y="48"/>
      <point x="297" y="48" type="curve" smooth="yes"/>
      <point x="222" y="48"/>
      <point x="201" y="97"/>
      <point x="201" y="272" type="curve" smooth="yes"/>
      <point x="201" y="415"/>
      <point x="215" y="452"/>
      <point x="273" y="452" type="curve" smooth="yes"/>
      <point x="360" y="452"/>
      <point x="315" y="371"/>
      <point x="341" y="319" type="curve" smooth="yes"/>
      <point x="387" y="228"/>
      <point x="525" y="335"/>
      <point x="465" y="430" type="curve" smooth="yes"/>
      <point x="438" y="473"/>
      <point x="362" y="526"/>
      <point x="263" y="526" type="curve" smooth="yes"/>
      <point x="111" y="526"/>
      <point x="18" y="399"/>
      <point x="18" y="261" type="curve" smooth="yes"/>
      <point x="18" y="112"/>
      <point x="125" y="-26"/>
    </contour>
  </outline>
</glyph>
<glyph name="d" format="2">
  <advance width="586"/>
  <unicode hex="0064"/>
  <outline>
    <contour>
      <point x="251" y="-16" type="curve" smooth="yes"/>
      <point x="318" y="-16"/>
      <point x="334" y="10"/>
      <point x="372" y="10" type="curve" smooth="yes"/>
      <point x="404" y="10"/>
      <point x="411" y="-16"/>
      <point x="450" y="-16" type="curve" smooth="yes"/>
      <point x="483" y="-16"/>
      <point x="558" y="2"/>
      <point x="558" y="80" type="curve" smooth="yes"/>
      <point x="558" y="157"/>
      <point x="508" y="266"/>
      <point x="508" y="374" type="curve" smooth="yes"/>
      <point x="508" y="484"/>
      <point x="558" y="592"/>
      <point x="558" y="670" type="curve" smooth="yes"/>
      <point x="558" y="747"/>
      <point x="483" y="766"/>
      <point x="450" y="766" type="curve" smooth="yes"/>
      <point x="417" y="766"/>
      <point x="341" y="747"/>
      <point x="341" y="670" type="curve" smooth="yes"/>
      <point x="341" y="624"/>
      <point x="348" y="592"/>
      <point x="373" y="544" type="curve" smooth="yes"/>
      <point x="381" y="528"/>
      <point x="416" y="490"/>
      <point x="416" y="440" type="curve" smooth="yes"/>
      <point x="416" y="418"/>
      <point x="402" y="402"/>
      <point x="402" y="418" type="curve" smooth="yes"/>
      <point x="402" y="452"/>
      <point x="382" y="486"/>
      <point x="344" y="500" type="curve" smooth="yes"/>
      <point x="298" y="516"/>
      <point x="284" y="515"/>
      <point x="249" y="515" type="curve" smooth="yes"/>
      <point x="80" y="516"/>
      <point x="18" y="399"/>
      <point x="18" y="254" type="curve" smooth="yes"/>
      <point x="18" y="112"/>
      <point x="80" y="-16"/>
    </contour>
    <contour>
      <point x="273" y="48" type="curve" smooth="yes"/>
      <point x="219" y="48"/>
      <point x="201" y="100"/>
      <point x="201" y="254" type="curve" smooth="yes"/>
      <point x="201" y="403"/>
      <point x="219" y="452"/>
      <point x="273" y="452" type="curve" smooth="yes"/>
      <point x="329" y="452"/>
      <point x="347" y="403"/>
      <point x="347" y="254" type="curve" smooth="yes"/>
      <point x="347" y="100"/>
      <point x="329" y="48"/>
    </contour>
  </outline>
</glyph>
<glyph name="e" format="2">
  <advance width="504"/>
  <unicode hex="0065"/>
  <outline>
    <contour>
      <point x="294" y="-26" type="curve" smooth="yes"/>
      <point x="379" y="-26"/>
      <point x="466" y="29"/>
      <point x="466" y="81" type="curve" smooth="yes"/>
      <point x="466" y="101"/>
      <point x="449" y="119"/>
      <point x="422" y="119" type="curve" smooth="yes"/>
      <point x="331" y="119"/>
      <point x="373" y="48"/>
      <point x="295" y="48" type="curve" smooth="yes"/>
      <point x="175" y="48"/>
      <point x="174" y="218"/>
      <point x="209" y="218" type="curve" smooth="yes"/>
      <point x="289" y="218"/>
      <point x="486" y="184"/>
      <point x="486" y="372" type="curve" smooth="yes"/>
      <point x="486" y="406"/>
      <point x="442" y="526"/>
      <point x="274" y="526" type="curve" smooth="yes"/>
      <point x="103" y="526"/>
      <point x="18" y="399"/>
      <point x="18" y="254" type="curve" smooth="yes"/>
      <point x="18" y="112"/>
      <point x="123" y="-26"/>
    </contour>
    <contour>
      <point x="207" y="266" type="curve" smooth="yes"/>
      <point x="202" y="370"/>
      <point x="135" y="452"/>
      <point x="265" y="452" type="curve" smooth="yes"/>
      <point x="357" y="452"/>
      <point x="339" y="316"/>
      <point x="256" y="276" type="curve" smooth="yes"/>
      <point x="227" y="262"/>
      <point x="208" y="249"/>
    </contour>
  </outline>
</glyph>
<glyph name="f" format="2">
  <advance width="362"/>
  <unicode hex="0066"/>
  <outline>
    <contour>
      <point x="137" y="-16" type="curve" smooth="yes"/>
      <point x="169" y="-16"/>
      <point x="246" y="0"/>
      <point x="246" y="83" type="curve" smooth="yes"/>
      <point x="246" y="145"/>
      <point x="202" y="265"/>
      <point x="202" y="336" type="curve" smooth="yes"/>
      <point x="202" y="394"/>
      <point x="232" y="423"/>
      <point x="294" y="433" type="curve"/>
      <point x="330" y="433"/>
      <point x="325" y="517"/>
      <point x="279" y="517" type="curve" smooth="yes"/>
      <point x="253" y="517"/>
      <point x="185" y="491"/>
      <point x="185" y="428" type="curve" smooth="yes"/>
      <point x="185" y="412"/>
      <point x="174" y="429"/>
      <point x="171" y="451" type="curve" smooth="yes"/>
      <point x="165" y="500"/>
      <point x="155" y="557"/>
      <point x="159" y="599" type="curve" smooth="yes"/>
      <point x="169" y="691"/>
      <point x="262" y="553"/>
      <point x="333" y="628" type="curve" smooth="yes"/>
      <point x="401" y="700"/>
      <point x="289" y="788"/>
      <point x="162" y="788" type="curve" smooth="yes"/>
      <point x="80" y="788"/>
      <point x="29" y="732"/>
      <point x="29" y="665" type="curve" smooth="yes"/>
      <point x="29" y="606"/>
      <point x="69" y="502"/>
      <point x="77" y="409" type="curve" smooth="yes"/>
      <point x="78" y="396"/>
      <point x="51" y="393"/>
      <point x="51" y="367" type="curve" smooth="yes"/>
      <point x="51" y="340"/>
      <point x="78" y="337"/>
      <point x="77" y="326" type="curve" smooth="yes"/>
      <point x="68" y="235"/>
      <point x="29" y="144"/>
      <point x="29" y="84" type="curve" smooth="yes"/>
      <point x="29" y="0"/>
      <point x="104" y="-16"/>
    </contour>
  </outline>
</glyph>
<glyph name="g" format="2">
  <advance width="641"/>
  <unicode hex="0067"/>
  <outline>
    <contour>
      <point x="75" y="-164" type="curve" smooth="yes"/>
      <point x="75" y="-307"/>
      <point x="393" y="-291"/>
      <point x="492" y="-176" type="curve" smooth="yes"/>
      <point x="561" y="-96"/>
      <point x="519" y="24"/>
      <point x="422" y="24" type="curve" smooth="yes"/>
      <point x="305" y="24"/>
      <point x="123" y="-17"/>
      <point x="101" y="76" type="curve" smooth="yes"/>
      <point x="97" y="95"/>
      <point x="97" y="126"/>
      <point x="113" y="112" type="curve" smooth="yes"/>
      <point x="129" y="98"/>
      <point x="171" y="54"/>
      <point x="270" y="54" type="curve" smooth="yes"/>
      <point x="433" y="54"/>
      <point x="513" y="175"/>
      <point x="513" y="290" type="curve" smooth="yes"/>
      <point x="513" y="351"/>
      <point x="490" y="403"/>
      <point x="453" y="445" type="curve"/>
      <point x="500" y="488"/>
      <point x="496" y="384"/>
      <point x="573" y="384" type="curve" smooth="yes"/>
      <point x="661" y="384"/>
      <point x="661" y="518"/>
      <point x="546" y="518" type="curve" smooth="yes"/>
      <point x="512" y="518"/>
      <point x="442" y="506"/>
      <point x="433" y="468" type="curve"/>
      <point x="398" y="511"/>
      <point x="333" y="536"/>
      <point x="263" y="536" type="curve" smooth="yes"/>
      <point x="111" y="536"/>
      <point x="27" y="417"/>
      <point x="27" y="294" type="curve" smooth="yes"/>
      <point x="27" y="231"/>
      <point x="49" y="184"/>
      <point x="77" y="143" type="curve" smooth="yes"/>
      <point x="98" y="112"/>
      <point x="18" y="76"/>
      <point x="18" y="6" type="curve" smooth="yes"/>
      <point x="18" y="-143"/>
      <point x="388" y="-11"/>
      <point x="388" y="-115" type="curve" smooth="yes"/>
      <point x="388" y="-208"/>
      <point x="75" y="-21"/>
    </contour>
    <contour>
      <point x="271" y="118" type="curve" smooth="yes"/>
      <point x="218" y="118"/>
      <point x="200" y="163"/>
      <point x="200" y="291" type="curve" smooth="yes"/>
      <point x="200" y="419"/>
      <point x="218" y="461"/>
      <point x="271" y="461" type="curve" smooth="yes"/>
      <point x="323" y="461"/>
      <point x="340" y="420"/>
      <point x="340" y="291" type="curve" smooth="yes"/>
      <point x="340" y="162"/>
      <point x="323" y="118"/>
    </contour>
  </outline>
</glyph>
<glyph name="h" format="2">
  <advance width="603"/>
  <unicode hex="0068"/>
  <outline>
    <contour>
      <point x="126" y="-16" type="curve" smooth="yes"/>
      <point x="160" y="-16"/>
      <point x="232" y="1"/>
      <point x="232" y="81" type="curve" smooth="yes"/>
      <point x="232" y="145"/>
      <point x="186" y="286"/>
      <point x="186" y="353" type="curve" smooth="yes"/>
      <point x="186" y="412"/>
      <point x="222" y="442"/>
      <point x="297" y="442" type="curve" smooth="yes"/>
      <point x="325" y="442"/>
      <point x="399" y="431"/>
      <point x="399" y="379" type="curve" smooth="yes"/>
      <point x="399" y="374" type="line" smooth="yes"/>
      <point x="399" y="268"/>
      <point x="353" y="152"/>
      <point x="353" y="84" type="curve" smooth="yes"/>
      <point x="353" y="-1"/>
      <point x="425" y="-16"/>
      <point x="458" y="-16" type="curve" smooth="yes"/>
      <point x="490" y="-16"/>
      <point x="562" y="-1"/>
      <point x="562" y="85" type="curve" smooth="yes"/>
      <point x="562" y="151"/>
      <point x="520" y="267"/>
      <point x="516" y="374" type="curve" smooth="yes"/>
      <point x="515" y="399" type="line" smooth="yes"/>
      <point x="513" y="456"/>
      <point x="465" y="516"/>
      <point x="338" y="516" type="curve" smooth="yes"/>
      <point x="221" y="516"/>
      <point x="175" y="465"/>
      <point x="175" y="418" type="curve" smooth="yes"/>
      <point x="175" y="402"/>
      <point x="161" y="428"/>
      <point x="161" y="454" type="curve" smooth="yes"/>
      <point x="161" y="495"/>
      <point x="194" y="527"/>
      <point x="204" y="544" type="curve" smooth="yes"/>
      <point x="221" y="572"/>
      <point x="236" y="620"/>
      <point x="236" y="661" type="curve" smooth="yes"/>
      <point x="236" y="747"/>
      <point x="168" y="766"/>
      <point x="129" y="766" type="curve" smooth="yes"/>
      <point x="94" y="766"/>
      <point x="19" y="750"/>
      <point x="19" y="666" type="curve" smooth="yes"/>
      <point x="19" y="597"/>
      <point x="69" y="483"/>
      <point x="69" y="374" type="curve" smooth="yes"/>
      <point x="69" y="269"/>
      <point x="23" y="152"/>
      <point x="23" y="84" type="curve" smooth="yes"/>
      <point x="23" y="0"/>
      <point x="94" y="-16"/>
    </contour>
  </outline>
</glyph>
<glyph name="i" format="2">
  <advance width="307"/>
  <unicode hex="0069"/>
  <outline>
    <contour>
      <point x="147" y="-16" type="curve" smooth="yes"/>
      <point x="180" y="-16"/>
      <point x="248" y="2"/>
      <point x="248" y="78" type="curve" smooth="yes"/>
      <point x="248" y="153"/>
      <point x="216" y="154"/>
      <point x="216" y="259" type="curve" smooth="yes"/>
      <point x="216" y="391"/>
      <point x="269" y="496"/>
      <point x="147" y="496" type="curve" smooth="yes"/>
      <point x="25" y="496"/>
      <point x="79" y="391"/>
      <point x="79" y="259" type="curve" smooth="yes"/>
      <point x="79" y="154"/>
      <point x="47" y="153"/>
      <point x="47" y="78" type="curve" smooth="yes"/>
      <point x="47" y="2"/>
      <point x="114" y="-16"/>
    </contour>
    <contour>
      <point x="147" y="542" type="curve" smooth="yes"/>
      <point x="220" y="542"/>
      <point x="254" y="576"/>
      <point x="254" y="639" type="curve" smooth="yes"/>
      <point x="254" y="699"/>
      <point x="222" y="736"/>
      <point x="147" y="736" type="curve" smooth="yes"/>
      <point x="73" y="736"/>
      <point x="39" y="702"/>
      <point x="39" y="639" type="curve" smooth="yes"/>
      <point x="39" y="579"/>
      <point x="71" y="542"/>
    </contour>
  </outline>
</glyph>
<glyph name="j" format="2">
  <advance width="277"/>
  <unicode hex="006A"/>
  <outline>
    <contour>
      <point x="-7" y="-264" type="curve" smooth="yes"/>
      <point x="174" y="-267"/>
      <point x="191" y="0"/>
      <point x="191" y="164" type="curve" smooth="yes"/>
      <point x="191" y="271"/>
      <point x="230" y="342"/>
      <point x="230" y="420" type="curve" smooth="yes"/>
      <point x="230" y="497"/>
      <point x="165" y="516"/>
      <point x="132" y="516" type="curve" smooth="yes"/>
      <point x="99" y="516"/>
      <point x="34" y="497"/>
      <point x="34" y="420" type="curve" smooth="yes"/>
      <point x="34" y="342"/>
      <point x="46" y="273"/>
      <point x="74" y="164" type="curve" smooth="yes"/>
      <point x="84" y="125"/>
      <point x="81" y="38"/>
      <point x="56" y="-2" type="curve" smooth="yes"/>
      <point x="35" y="-36"/>
      <point x="10" y="-45"/>
      <point x="-37" y="-77" type="curve" smooth="yes"/>
      <point x="-157" y="-159"/>
      <point x="-85" y="-263"/>
    </contour>
    <contour>
      <point x="132" y="572" type="curve" smooth="yes"/>
      <point x="205" y="572"/>
      <point x="239" y="606"/>
      <point x="239" y="669" type="curve" smooth="yes"/>
      <point x="239" y="729"/>
      <point x="207" y="766"/>
      <point x="132" y="766" type="curve" smooth="yes"/>
      <point x="58" y="766"/>
      <point x="24" y="732"/>
      <point x="24" y="669" type="curve" smooth="yes"/>
      <point x="24" y="609"/>
      <point x="56" y="572"/>
    </contour>
  </outline>
</glyph>
<glyph name="k" format="2">
  <advance width="558"/>
  <unicode hex="006B"/>
  <outline>
    <contour>
      <point x="353" y="15" type="curve" smooth="yes"/>
      <point x="446" y="-76"/>
      <point x="593" y="73"/>
      <point x="501" y="165" type="curve" smooth="yes"/>
      <point x="471" y="195"/>
      <point x="334" y="273"/>
      <point x="315" y="303" type="curve" smooth="yes"/>
      <point x="261" y="390"/>
      <point x="423" y="355"/>
      <point x="469" y="374" type="curve" smooth="yes"/>
      <point x="562" y="412"/>
      <point x="459" y="557"/>
      <point x="339" y="502" type="curve" smooth="yes"/>
      <point x="261" y="466"/>
      <point x="204" y="418"/>
      <point x="185" y="382" type="curve" smooth="yes"/>
      <point x="176" y="364"/>
      <point x="171" y="428"/>
      <point x="171" y="450" type="curve" smooth="yes"/>
      <point x="171" y="532"/>
      <point x="226" y="569"/>
      <point x="226" y="670" type="curve" smooth="yes"/>
      <point x="226" y="809"/>
      <point x="29" y="786"/>
      <point x="29" y="670" type="curve" smooth="yes"/>
      <point x="29" y="592"/>
      <point x="79" y="484"/>
      <point x="79" y="374" type="curve" smooth="yes"/>
      <point x="79" y="266"/>
      <point x="19" y="157"/>
      <point x="19" y="80" type="curve" smooth="yes"/>
      <point x="19" y="-48"/>
      <point x="236" y="-47"/>
      <point x="236" y="80" type="curve" smooth="yes"/>
      <point x="236" y="127"/>
      <point x="212" y="219"/>
      <point x="202" y="263" type="curve" smooth="yes"/>
      <point x="195" y="296"/>
      <point x="226" y="294"/>
      <point x="234" y="282" type="curve" smooth="yes"/>
      <point x="287" y="201"/>
      <point x="306" y="63"/>
    </contour>
  </outline>
</glyph>
<glyph name="l" format="2">
  <advance width="312"/>
  <unicode hex="006C"/>
  <outline>
    <contour>
      <point x="176" y="-16" type="curve" smooth="yes"/>
      <point x="222" y="-16"/>
      <point x="279" y="4"/>
      <point x="279" y="72" type="curve" smooth="yes"/>
      <point x="279" y="140"/>
      <point x="223" y="115"/>
      <point x="196" y="199" type="curve" smooth="yes"/>
      <point x="178" y="255"/>
      <point x="186" y="310"/>
      <point x="186" y="374" type="curve" smooth="yes"/>
      <point x="186" y="482"/>
      <point x="236" y="597"/>
      <point x="236" y="665" type="curve" smooth="yes"/>
      <point x="236" y="750"/>
      <point x="159" y="766"/>
      <point x="127" y="766" type="curve" smooth="yes"/>
      <point x="95" y="766"/>
      <point x="19" y="750"/>
      <point x="19" y="666" type="curve" smooth="yes"/>
      <point x="19" y="597"/>
      <point x="69" y="484"/>
      <point x="69" y="373" type="curve" smooth="yes"/>
      <point x="69" y="273"/>
      <point x="29" y="145"/>
      <point x="29" y="89" type="curve" smooth="yes"/>
      <point x="29" y="-4"/>
      <point x="141" y="-16"/>
    </contour>
  </outline>
</glyph>
<glyph name="m" format="2">
  <advance width="856"/>
  <unicode hex="006D"/>
  <outline>
    <contour>
      <point x="124" y="-16" type="curve" smooth="yes"/>
      <point x="156" y="-16"/>
      <point x="228" y="0"/>
      <point x="228" y="83" type="curve" smooth="yes"/>
      <point x="228" y="150"/>
      <point x="182" y="271"/>
      <point x="182" y="366" type="curve" smooth="yes"/>
      <point x="182" y="400"/>
      <point x="188" y="442"/>
      <point x="257" y="442" type="curve" smooth="yes"/>
      <point x="293" y="442"/>
      <point x="365" y="431"/>
      <point x="365" y="379" type="curve" smooth="yes"/>
      <point x="365" y="374" type="line" smooth="yes"/>
      <point x="365" y="268"/>
      <point x="319" y="152"/>
      <point x="319" y="84" type="curve" smooth="yes"/>
      <point x="319" y="-1"/>
      <point x="391" y="-16"/>
      <point x="424" y="-16" type="curve" smooth="yes"/>
      <point x="456" y="-16"/>
      <point x="528" y="-1"/>
      <point x="528" y="85" type="curve" smooth="yes"/>
      <point x="528" y="151"/>
      <point x="486" y="267"/>
      <point x="482" y="374" type="curve" smooth="yes"/>
      <point x="481" y="399" type="line" smooth="yes"/>
      <point x="479" y="448"/>
      <point x="448" y="516"/>
      <point x="318" y="516" type="curve" smooth="yes"/>
      <point x="208" y="516"/>
      <point x="171" y="468"/>
      <point x="171" y="418" type="curve" smooth="yes"/>
      <point x="171" y="402"/>
      <point x="157" y="428"/>
      <point x="157" y="449" type="curve" smooth="yes"/>
      <point x="157" y="481"/>
      <point x="189" y="490"/>
      <point x="181" y="518" type="curve" smooth="yes"/>
      <point x="167" y="567"/>
      <point x="65" y="540"/>
      <point x="51" y="487" type="curve" smooth="yes"/>
      <point x="43" y="456"/>
      <point x="65" y="418"/>
      <point x="65" y="362" type="curve" smooth="yes"/>
      <point x="65" y="281"/>
      <point x="19" y="148"/>
      <point x="19" y="82" type="curve" smooth="yes"/>
      <point x="19" y="1"/>
      <point x="90" y="-16"/>
    </contour>
    <contour>
      <point x="724" y="-16" type="curve" smooth="yes"/>
      <point x="756" y="-16"/>
      <point x="828" y="-1"/>
      <point x="828" y="85" type="curve" smooth="yes"/>
      <point x="828" y="151"/>
      <point x="786" y="267"/>
      <point x="782" y="374" type="curve" smooth="yes"/>
      <point x="781" y="399" type="line" smooth="yes"/>
      <point x="779" y="456"/>
      <point x="735" y="516"/>
      <point x="625" y="516" type="curve" smooth="yes"/>
      <point x="507" y="516"/>
      <point x="475" y="447"/>
      <point x="475" y="402" type="curve" smooth="yes"/>
      <point x="475" y="400"/>
      <point x="471" y="424"/>
      <point x="470" y="423" type="curve"/>
      <point x="480" y="375" type="line"/>
      <point x="488" y="419"/>
      <point x="502" y="442"/>
      <point x="567" y="442" type="curve" smooth="yes"/>
      <point x="612" y="442"/>
      <point x="665" y="431"/>
      <point x="665" y="359" type="curve" smooth="yes"/>
      <point x="665" y="291"/>
      <point x="619" y="145"/>
      <point x="619" y="81" type="curve" smooth="yes"/>
      <point x="619" y="1"/>
      <point x="690" y="-16"/>
    </contour>
  </outline>
</glyph>
<glyph name="n" format="2">
  <advance width="586"/>
  <unicode hex="006E"/>
  <outline>
    <contour>
      <point x="123" y="-16" type="curve" smooth="yes"/>
      <point x="156" y="-16"/>
      <point x="228" y="1"/>
      <point x="228" y="81" type="curve" smooth="yes"/>
      <point x="228" y="145"/>
      <point x="182" y="286"/>
      <point x="182" y="353" type="curve" smooth="yes"/>
      <point x="182" y="413"/>
      <point x="218" y="442"/>
      <point x="295" y="442" type="curve" smooth="yes"/>
      <point x="343" y="442"/>
      <point x="395" y="431"/>
      <point x="395" y="358" type="curve" smooth="yes"/>
      <point x="395" y="290"/>
      <point x="349" y="145"/>
      <point x="349" y="81" type="curve" smooth="yes"/>
      <point x="349" y="1"/>
      <point x="420" y="-16"/>
      <point x="454" y="-16" type="curve" smooth="yes"/>
      <point x="486" y="-16"/>
      <point x="558" y="-1"/>
      <point x="558" y="85" type="curve" smooth="yes"/>
      <point x="558" y="151"/>
      <point x="516" y="267"/>
      <point x="512" y="374" type="curve" smooth="yes"/>
      <point x="511" y="399" type="line" smooth="yes"/>
      <point x="509" y="456"/>
      <point x="461" y="516"/>
      <point x="334" y="516" type="curve" smooth="yes"/>
      <point x="217" y="516"/>
      <point x="171" y="465"/>
      <point x="171" y="418" type="curve" smooth="yes"/>
      <point x="171" y="402"/>
      <point x="157" y="428"/>
      <point x="157" y="449" type="curve" smooth="yes"/>
      <point x="157" y="481"/>
      <point x="189" y="490"/>
      <point x="181" y="518" type="curve" smooth="yes"/>
      <point x="167" y="567"/>
      <point x="65" y="540"/>
      <point x="51" y="487" type="curve" smooth="yes"/>
      <point x="43" y="456"/>
      <point x="65" y="418"/>
      <point x="65" y="362" type="curve" smooth="yes"/>
      <point x="65" y="281"/>
      <point x="19" y="148"/>
      <point x="19" y="82" type="curve" smooth="yes"/>
      <point x="19" y="1"/>
      <point x="90" y="-16"/>
    </contour>
  </outline>
</glyph>
<glyph name="o" format="2">
  <advance width="548"/>
  <unicode hex="006F"/>
  <outline>
    <contour>
      <point x="274" y="-26" type="curve" smooth="yes"/>
      <point x="445" y="-26"/>
      <point x="530" y="112"/>
      <point x="530" y="254" type="curve" smooth="yes"/>
      <point x="530" y="399"/>
      <point x="445" y="526"/>
      <point x="274" y="526" type="curve" smooth="yes"/>
      <point x="103" y="526"/>
      <point x="18" y="399"/>
      <point x="18" y="254" type="curve" smooth="yes"/>
      <point x="18" y="112"/>
      <point x="103" y="-26"/>
    </contour>
    <contour>
      <point x="275" y="48" type="curve" smooth="yes"/>
      <point x="212" y="48"/>
      <point x="191" y="100"/>
      <point x="191" y="254" type="curve" smooth="yes"/>
      <point x="191" y="403"/>
      <point x="212" y="452"/>
      <point x="275" y="452" type="curve" smooth="yes"/>
      <point x="337" y="452"/>
      <point x="357" y="403"/>
      <point x="357" y="254" type="curve" smooth="yes"/>
      <point x="357" y="100"/>
      <point x="337" y="48"/>
    </contour>
  </outline>
</glyph>
<glyph name="p" format="2">
  <advance width="573"/>
  <unicode hex="0070"/>
  <outline>
    <contour>
      <point x="127" y="-266" type="curve" smooth="yes"/>
      <point x="160" y="-266"/>
      <point x="232" y="-248"/>
      <point x="232" y="-170" type="curve" smooth="yes"/>
      <point x="232" y="-119"/>
      <point x="152" y="-60"/>
      <point x="199" y="15" type="curve" smooth="yes"/>
      <point x="214" y="39"/>
      <point x="236" y="-16"/>
      <point x="329" y="-16" type="curve" smooth="yes"/>
      <point x="500" y="-16"/>
      <point x="555" y="112"/>
      <point x="555" y="254" type="curve" smooth="yes"/>
      <point x="555" y="399"/>
      <point x="500" y="516"/>
      <point x="329" y="516" type="curve" smooth="yes"/>
      <point x="275" y="516"/>
      <point x="230" y="505"/>
      <point x="194" y="484" type="curve" smooth="yes"/>
      <point x="173" y="470"/>
      <point x="163" y="441"/>
      <point x="163" y="416" type="curve" smooth="yes"/>
      <point x="163" y="400"/>
      <point x="149" y="426"/>
      <point x="149" y="448" type="curve" smooth="yes"/>
      <point x="149" y="459"/>
      <point x="151" y="467"/>
      <point x="155" y="474" type="curve" smooth="yes"/>
      <point x="163" y="489"/>
      <point x="182" y="501"/>
      <point x="165" y="527" type="curve" smooth="yes"/>
      <point x="139" y="567"/>
      <point x="63" y="526"/>
      <point x="41" y="487" type="curve" smooth="yes"/>
      <point x="30" y="468"/>
      <point x="19" y="446"/>
      <point x="19" y="420" type="curve" smooth="yes"/>
      <point x="19" y="342"/>
      <point x="69" y="234"/>
      <point x="69" y="124" type="curve" smooth="yes"/>
      <point x="69" y="16"/>
      <point x="23" y="-93"/>
      <point x="23" y="-170" type="curve" smooth="yes"/>
      <point x="23" y="-248"/>
      <point x="94" y="-266"/>
    </contour>
    <contour>
      <point x="300" y="48" type="curve" smooth="yes"/>
      <point x="245" y="48"/>
      <point x="226" y="100"/>
      <point x="226" y="254" type="curve" smooth="yes"/>
      <point x="226" y="403"/>
      <point x="245" y="452"/>
      <point x="300" y="452" type="curve" smooth="yes"/>
      <point x="354" y="452"/>
      <point x="372" y="403"/>
      <point x="372" y="254" type="curve" smooth="yes"/>
      <point x="372" y="100"/>
      <point x="354" y="48"/>
    </contour>
  </outline>
</glyph>
<glyph name="q" format="2">
  <advance width="582"/>
  <unicode hex="0071"/>
  <outline>
    <contour>
      <point x="446" y="-266" type="curve" smooth="yes"/>
      <point x="479" y="-266"/>
      <point x="550" y="-248"/>
      <point x="550" y="-170" type="curve" smooth="yes"/>
      <point x="550" y="-93"/>
      <point x="504" y="16"/>
      <point x="504" y="124" type="curve" smooth="yes"/>
      <point x="504" y="234"/>
      <point x="554" y="342"/>
      <point x="554" y="420" type="curve" smooth="yes"/>
      <point x="554" y="446"/>
      <point x="543" y="468"/>
      <point x="532" y="487" type="curve" smooth="yes"/>
      <point x="510" y="526"/>
      <point x="434" y="567"/>
      <point x="408" y="527" type="curve" smooth="yes"/>
      <point x="391" y="501"/>
      <point x="410" y="489"/>
      <point x="418" y="474" type="curve" smooth="yes"/>
      <point x="422" y="467"/>
      <point x="424" y="459"/>
      <point x="424" y="448" type="curve" smooth="yes"/>
      <point x="424" y="426"/>
      <point x="410" y="400"/>
      <point x="410" y="416" type="curve" smooth="yes"/>
      <point x="410" y="441"/>
      <point x="400" y="470"/>
      <point x="379" y="484" type="curve" smooth="yes"/>
      <point x="343" y="505"/>
      <point x="298" y="516"/>
      <point x="244" y="516" type="curve" smooth="yes"/>
      <point x="73" y="516"/>
      <point x="18" y="399"/>
      <point x="18" y="254" type="curve" smooth="yes"/>
      <point x="18" y="112"/>
      <point x="73" y="-16"/>
      <point x="244" y="-16" type="curve" smooth="yes"/>
      <point x="337" y="-16"/>
      <point x="359" y="39"/>
      <point x="374" y="15" type="curve" smooth="yes"/>
      <point x="421" y="-60"/>
      <point x="341" y="-119"/>
      <point x="341" y="-170" type="curve"/>
      <point x="341" y="-248"/>
      <point x="413" y="-266"/>
    </contour>
    <contour>
      <point x="273" y="48" type="curve" smooth="yes"/>
      <point x="219" y="48"/>
      <point x="201" y="100"/>
      <point x="201" y="254" type="curve" smooth="yes"/>
      <point x="201" y="403"/>
      <point x="219" y="452"/>
      <point x="273" y="452" type="curve" smooth="yes"/>
      <point x="329" y="452"/>
      <point x="347" y="403"/>
      <point x="347" y="254" type="curve" smooth="yes"/>
      <point x="347" y="100"/>
      <point x="329" y="48"/>
    </contour>
  </outline>
</glyph>
<glyph name="r" format="2">
  <advance width="465"/>
  <unicode hex="0072"/>
  <outline>
    <contour>
      <point x="124" y="-16" type="curve" smooth="yes"/>
      <point x="156" y="-16"/>
      <point x="228" y="-1"/>
      <point x="228" y="85" type="curve" smooth="yes"/>
      <point x="228" y="154"/>
      <point x="182" y="258"/>
      <point x="182" y="378" type="curve" smooth="yes"/>
      <point x="182" y="396"/>
      <point x="183" y="422"/>
      <point x="206" y="422" type="curve" smooth="yes"/>
      <point x="250" y="422"/>
      <point x="247" y="322"/>
      <point x="346" y="322" type="curve" smooth="yes"/>
      <point x="484" y="322"/>
      <point x="484" y="516"/>
      <point x="324" y="516" type="curve" smooth="yes"/>
      <point x="268" y="516"/>
      <point x="171" y="492"/>
      <point x="171" y="418" type="curve" smooth="yes"/>
      <point x="171" y="402"/>
      <point x="157" y="428"/>
      <point x="157" y="449" type="curve" smooth="yes"/>
      <point x="157" y="481"/>
      <point x="189" y="490"/>
      <point x="181" y="518" type="curve" smooth="yes"/>
      <point x="167" y="567"/>
      <point x="65" y="540"/>
      <point x="51" y="487" type="curve" smooth="yes"/>
      <point x="43" y="456"/>
      <point x="65" y="418"/>
      <point x="65" y="362" type="curve" smooth="yes"/>
      <point x="65" y="281"/>
      <point x="19" y="148"/>
      <point x="19" y="82" type="curve" smooth="yes"/>
      <point x="19" y="0"/>
      <point x="91" y="-16"/>
    </contour>
  </outline>
</glyph>
<glyph name="s" format="2">
  <advance width="486"/>
  <unicode hex="0073"/>
  <outline>
    <contour>
      <point x="299" y="-6" type="curve" smooth="yes"/>
      <point x="441" y="16"/>
      <point x="472" y="109"/>
      <point x="453" y="168" type="curve" smooth="yes"/>
      <point x="412" y="294"/>
      <point x="118" y="341"/>
      <point x="165" y="432" type="curve" smooth="yes"/>
      <point x="214" y="526"/>
      <point x="383" y="215"/>
      <point x="452" y="398" type="curve" smooth="yes"/>
      <point x="499" y="524"/>
      <point x="272" y="522"/>
      <point x="175" y="502" type="curve" smooth="yes"/>
      <point x="30" y="472"/>
      <point x="6" y="368"/>
      <point x="53" y="301" type="curve" smooth="yes"/>
      <point x="123" y="202"/>
      <point x="372" y="152"/>
      <point x="332" y="75" type="curve" smooth="yes"/>
      <point x="283" y="-19"/>
      <point x="94" y="291"/>
      <point x="25" y="108" type="curve" smooth="yes"/>
      <point x="-23" y="-18"/>
      <point x="208" y="-20"/>
    </contour>
  </outline>
</glyph>
<glyph name="t" format="2">
  <advance width="407"/>
  <unicode hex="0074"/>
  <outline>
    <contour>
      <point x="236" y="-16" type="curve" smooth="yes"/>
      <point x="433" y="-16"/>
      <point x="411" y="208"/>
      <point x="260" y="132" type="curve" smooth="yes"/>
      <point x="187" y="95"/>
      <point x="204" y="288"/>
      <point x="216" y="354" type="curve" smooth="yes"/>
      <point x="228" y="421"/>
      <point x="256" y="532"/>
      <point x="256" y="610" type="curve" smooth="yes"/>
      <point x="256" y="687"/>
      <point x="190" y="706"/>
      <point x="157" y="706" type="curve" smooth="yes"/>
      <point x="124" y="706"/>
      <point x="69" y="687"/>
      <point x="69" y="610" type="curve" smooth="yes"/>
      <point x="69" y="532"/>
      <point x="90" y="424"/>
      <point x="90" y="354" type="curve" smooth="yes"/>
      <point x="90" y="246"/>
      <point x="59" y="157"/>
      <point x="59" y="80" type="curve" smooth="yes"/>
      <point x="59" y="2"/>
      <point x="158" y="-16"/>
    </contour>
    <contour>
      <point x="159" y="468" type="curve" smooth="yes"/>
      <point x="281" y="468"/>
      <point x="368" y="424"/>
      <point x="368" y="512" type="curve" smooth="yes"/>
      <point x="368" y="608"/>
      <point x="281" y="568"/>
      <point x="165" y="568" type="curve" smooth="yes"/>
      <point x="102" y="568"/>
      <point x="9" y="602"/>
      <point x="9" y="513" type="curve" smooth="yes"/>
      <point x="9" y="421"/>
      <point x="97" y="468"/>
    </contour>
  </outline>
</glyph>
<glyph name="u" format="2">
  <advance width="620"/>
  <unicode hex="0075"/>
  <outline>
    <contour>
      <point x="234" y="-26" type="curve" smooth="yes"/>
      <point x="353" y="-26"/>
      <point x="397" y="36"/>
      <point x="397" y="82" type="curve" smooth="yes"/>
      <point x="397" y="110"/>
      <point x="411" y="56"/>
      <point x="411" y="25" type="curve" smooth="yes"/>
      <point x="411" y="-27"/>
      <point x="621" y="-56"/>
      <point x="588" y="85" type="curve" smooth="yes"/>
      <point x="571" y="159"/>
      <point x="533" y="82"/>
      <point x="533" y="126" type="curve" smooth="yes"/>
      <point x="533" y="224"/>
      <point x="539" y="367"/>
      <point x="539" y="399" type="curve" smooth="yes"/>
      <point x="539" y="501"/>
      <point x="477" y="516"/>
      <point x="441" y="516" type="curve" smooth="yes"/>
      <point x="401" y="516"/>
      <point x="360" y="497"/>
      <point x="360" y="422" type="curve" smooth="yes"/>
      <point x="360" y="353"/>
      <point x="396" y="211"/>
      <point x="396" y="151" type="curve" smooth="yes"/>
      <point x="396" y="88"/>
      <point x="355" y="58"/>
      <point x="271" y="58" type="curve" smooth="yes"/>
      <point x="180" y="58"/>
      <point x="163" y="93"/>
      <point x="163" y="155" type="curve" smooth="yes"/>
      <point x="163" y="244"/>
      <point x="198" y="347"/>
      <point x="198" y="420" type="curve" smooth="yes"/>
      <point x="198" y="498"/>
      <point x="158" y="516"/>
      <point x="122" y="516" type="curve" smooth="yes"/>
      <point x="86" y="516"/>
      <point x="19" y="498"/>
      <point x="19" y="412" type="curve" smooth="yes"/>
      <point x="19" y="351"/>
      <point x="52" y="231"/>
      <point x="56" y="125" type="curve" smooth="yes"/>
      <point x="59" y="45"/>
      <point x="107" y="-26"/>
    </contour>
  </outline>
</glyph>
<glyph name="v" format="2">
  <advance width="570"/>
  <unicode hex="0076"/>
  <outline>
    <contour>
      <point x="279" y="-16" type="curve" smooth="yes"/>
      <point x="307" y="-16"/>
      <point x="325" y="-12"/>
      <point x="348" y="20" type="curve" smooth="yes"/>
      <point x="380" y="65"/>
      <point x="405" y="130"/>
      <point x="427" y="197" type="curve" smooth="yes"/>
      <point x="453" y="280"/>
      <point x="505" y="349"/>
      <point x="535" y="408" type="curve" smooth="yes"/>
      <point x="560" y="459"/>
      <point x="510" y="496"/>
      <point x="485" y="506" type="curve" smooth="yes"/>
      <point x="461" y="516"/>
      <point x="388" y="530"/>
      <point x="362" y="479" type="curve" smooth="yes"/>
      <point x="333" y="421"/>
      <point x="340" y="322"/>
      <point x="319" y="235" type="curve" smooth="yes"/>
      <point x="309" y="193"/>
      <point x="297" y="141"/>
      <point x="279" y="141" type="curve" smooth="yes"/>
      <point x="261" y="141"/>
      <point x="248" y="193"/>
      <point x="238" y="235" type="curve" smooth="yes"/>
      <point x="217" y="322"/>
      <point x="224" y="421"/>
      <point x="196" y="479" type="curve" smooth="yes"/>
      <point x="170" y="530"/>
      <point x="97" y="516"/>
      <point x="72" y="506" type="curve" smooth="yes"/>
      <point x="48" y="496"/>
      <point x="5" y="462"/>
      <point x="23" y="408" type="curve" smooth="yes"/>
      <point x="43" y="349"/>
      <point x="104" y="280"/>
      <point x="131" y="197" type="curve" smooth="yes"/>
      <point x="152" y="130"/>
      <point x="177" y="65"/>
      <point x="210" y="20" type="curve" smooth="yes"/>
      <point x="233" y="-11"/>
      <point x="251" y="-16"/>
    </contour>
  </outline>
</glyph>
<glyph name="w" format="2">
  <advance width="781"/>
  <unicode hex="0077"/>
  <outline>
    <contour>
      <point x="282" y="-8" type="curve" smooth="yes"/>
      <point x="310" y="-8"/>
      <point x="342" y="-7"/>
      <point x="360" y="21" type="curve" smooth="yes"/>
      <point x="372" y="39"/>
      <point x="377" y="66"/>
      <point x="386" y="96" type="curve"/>
      <point x="395" y="66"/>
      <point x="400" y="39"/>
      <point x="412" y="21" type="curve" smooth="yes"/>
      <point x="430" y="-7"/>
      <point x="462" y="-8"/>
      <point x="490" y="-8" type="curve" smooth="yes"/>
      <point x="517" y="-8"/>
      <point x="549" y="-7"/>
      <point x="565" y="21" type="curve" smooth="yes"/>
      <point x="590" y="65"/>
      <point x="612" y="131"/>
      <point x="632" y="196" type="curve" smooth="yes"/>
      <point x="659" y="279"/>
      <point x="718" y="348"/>
      <point x="747" y="406" type="curve" smooth="yes"/>
      <point x="787" y="492"/>
      <point x="610" y="564"/>
      <point x="570" y="468" type="curve" smooth="yes"/>
      <point x="545" y="408"/>
      <point x="562" y="317"/>
      <point x="538" y="233" type="curve"/>
      <point x="530" y="212"/>
      <point x="515" y="142"/>
      <point x="490" y="142" type="curve" smooth="yes"/>
      <point x="458" y="142"/>
      <point x="442" y="262"/>
      <point x="442" y="291" type="curve" smooth="yes"/>
      <point x="442" y="380"/>
      <point x="330" y="380"/>
      <point x="330" y="291" type="curve" smooth="yes"/>
      <point x="330" y="262"/>
      <point x="314" y="142"/>
      <point x="282" y="142" type="curve" smooth="yes"/>
      <point x="257" y="142"/>
      <point x="242" y="212"/>
      <point x="234" y="233" type="curve"/>
      <point x="210" y="317"/>
      <point x="227" y="408"/>
      <point x="202" y="468" type="curve" smooth="yes"/>
      <point x="162" y="564"/>
      <point x="-15" y="492"/>
      <point x="25" y="406" type="curve" smooth="yes"/>
      <point x="54" y="348"/>
      <point x="113" y="279"/>
      <point x="140" y="196" type="curve" smooth="yes"/>
      <point x="160" y="131"/>
      <point x="182" y="65"/>
      <point x="207" y="21" type="curve" smooth="yes"/>
      <point x="223" y="-7"/>
      <point x="255" y="-8"/>
    </contour>
  </outline>
</glyph>
<glyph name="x" format="2">
  <advance width="535"/>
  <unicode hex="0078"/>
  <outline>
    <contour>
      <point x="472" y="5" type="curve" smooth="yes"/>
      <point x="519" y="40"/>
      <point x="510" y="117"/>
      <point x="449" y="175" type="curve" smooth="yes"/>
      <point x="399" y="224"/>
      <point x="387" y="212"/>
      <point x="336" y="255" type="curve"/>
      <point x="387" y="298"/>
      <point x="398" y="286"/>
      <point x="449" y="336" type="curve" smooth="yes"/>
      <point x="510" y="393"/>
      <point x="519" y="464"/>
      <point x="473" y="495" type="curve" smooth="yes"/>
      <point x="447" y="513"/>
      <point x="417" y="538"/>
      <point x="357" y="480" type="curve" smooth="yes"/>
      <point x="312" y="437"/>
      <point x="287" y="343"/>
      <point x="257" y="343" type="curve" smooth="yes"/>
      <point x="229" y="343"/>
      <point x="204" y="440"/>
      <point x="162" y="480" type="curve" smooth="yes"/>
      <point x="103" y="538"/>
      <point x="73" y="514"/>
      <point x="47" y="495" type="curve" smooth="yes"/>
      <point x="3" y="464"/>
      <point x="20" y="383"/>
      <point x="81" y="326" type="curve" smooth="yes"/>
      <point x="130" y="277"/>
      <point x="133" y="288"/>
      <point x="183" y="245" type="curve"/>
      <point x="133" y="202"/>
      <point x="122" y="214"/>
      <point x="71" y="165" type="curve" smooth="yes"/>
      <point x="10" y="107"/>
      <point x="3" y="34"/>
      <point x="47" y="6" type="curve" smooth="yes"/>
      <point x="73" y="-11"/>
      <point x="103" y="-38"/>
      <point x="164" y="20" type="curve" smooth="yes"/>
      <point x="207" y="63"/>
      <point x="233" y="157"/>
      <point x="263" y="157" type="curve" smooth="yes"/>
      <point x="291" y="157"/>
      <point x="315" y="61"/>
      <point x="356" y="20" type="curve" smooth="yes"/>
      <point x="417" y="-38"/>
      <point x="448" y="-13"/>
    </contour>
  </outline>
</glyph>
<glyph name="y" format="2">
  <advance width="587"/>
  <unicode hex="0079"/>
  <outline>
    <contour>
      <point x="147" y="-264" type="curve" smooth="yes"/>
      <point x="240" y="-264"/>
      <point x="303" y="-139"/>
      <point x="372" y="15" type="curve" smooth="yes"/>
      <point x="430" y="145"/>
      <point x="495" y="296"/>
      <point x="552" y="408" type="curve" smooth="yes"/>
      <point x="578" y="458"/>
      <point x="520" y="496"/>
      <point x="495" y="506" type="curve" smooth="yes"/>
      <point x="471" y="516"/>
      <point x="422" y="530"/>
      <point x="396" y="479" type="curve" smooth="yes"/>
      <point x="373" y="433"/>
      <point x="354" y="141"/>
      <point x="302" y="141" type="curve" smooth="yes"/>
      <point x="249" y="141"/>
      <point x="218" y="431"/>
      <point x="195" y="479" type="curve" smooth="yes"/>
      <point x="169" y="530"/>
      <point x="107" y="516"/>
      <point x="82" y="506" type="curve" smooth="yes"/>
      <point x="58" y="496"/>
      <point x="5" y="462"/>
      <point x="23" y="408" type="curve" smooth="yes"/>
      <point x="49" y="331"/>
      <point x="210" y="105"/>
      <point x="210" y="20" type="curve" smooth="yes"/>
      <point x="210" y="-111"/>
      <point x="143" y="-59"/>
      <point x="95" y="-87" type="curve" smooth="yes"/>
      <point x="10" y="-137"/>
      <point x="48" y="-264"/>
    </contour>
  </outline>
</glyph>
<glyph name="z" format="2">
  <advance width="529"/>
  <unicode hex="007A"/>
  <outline>
    <contour>
      <point x="85" y="-16" type="curve" smooth="yes"/>
      <point x="118" y="-16"/>
      <point x="196" y="6"/>
      <point x="260" y="6" type="curve" smooth="yes"/>
      <point x="324" y="6"/>
      <point x="402" y="-16"/>
      <point x="436" y="-16" type="curve" smooth="yes"/>
      <point x="490" y="-16"/>
      <point x="501" y="41"/>
      <point x="501" y="72" type="curve" smooth="yes"/>
      <point x="501" y="103"/>
      <point x="490" y="176"/>
      <point x="441" y="176" type="curve" smooth="yes"/>
      <point x="394" y="176"/>
      <point x="258" y="106"/>
      <point x="233" y="137" type="curve" smooth="yes"/>
      <point x="182" y="201"/>
      <point x="501" y="304"/>
      <point x="501" y="435" type="curve" smooth="yes"/>
      <point x="501" y="459"/>
      <point x="490" y="516"/>
      <point x="435" y="516" type="curve" smooth="yes"/>
      <point x="402" y="516"/>
      <point x="324" y="495"/>
      <point x="260" y="495" type="curve" smooth="yes"/>
      <point x="196" y="495"/>
      <point x="139" y="516"/>
      <point x="105" y="516" type="curve" smooth="yes"/>
      <point x="50" y="516"/>
      <point x="39" y="461"/>
      <point x="39" y="429" type="curve" smooth="yes"/>
      <point x="39" y="390"/>
      <point x="56" y="344"/>
      <point x="96" y="344" type="curve" smooth="yes"/>
      <point x="148" y="344"/>
      <point x="251" y="421"/>
      <point x="285" y="387" type="curve" smooth="yes"/>
      <point x="328" y="344"/>
      <point x="19" y="218"/>
      <point x="19" y="71" type="curve" smooth="yes"/>
      <point x="19" y="43"/>
      <point x="30" y="-16"/>
    </contour>
  </outline>
</glyph>
<glyph name="quoteleft" format="2">
  <advance width="262"/>
  <unicode hex="2018"/>
  <outline>
    <contour>
      <point x="126" y="367" type="curve" smooth="yes"/>
      <point x="200" y="367"/>
      <point x="234" y="401"/>
      <point x="234" y="464" type="curve" smooth="yes"/>
      <point x="234" y="524"/>
      <point x="202" y="561"/>
      <point x="126" y="561" type="curve" smooth="yes"/>
      <point x="118" y="561" type="line" smooth="yes"/>
      <point x="92" y="561"/>
      <point x="93" y="627"/>
      <point x="175" y="627" type="curve" smooth="yes"/>
      <point x="211" y="627"/>
      <point x="209" y="716"/>
      <point x="131" y="716" type="curve" smooth="yes"/>
      <point x="19" y="716"/>
      <point x="19" y="632"/>
      <point x="19" y="464" type="curve" smooth="yes"/>
      <point x="19" y="404"/>
      <point x="51" y="367"/>
    </contour>
  </outline>
</glyph>
<glyph name="quotedblleft" format="2">
  <advance width="492"/>
  <unicode hex="201C"/>
  <outline>
    <contour>
      <point x="356" y="367" type="curve" smooth="yes"/>
      <point x="430" y="367"/>
      <point x="464" y="401"/>
      <point x="464" y="464" type="curve" smooth="yes"/>
      <point x="464" y="524"/>
      <point x="432" y="561"/>
      <point x="356" y="561" type="curve" smooth="yes"/>
      <point x="348" y="561" type="line" smooth="yes"/>
      <point x="322" y="561"/>
      <point x="323" y="627"/>
      <point x="405" y="627" type="curve" smooth="yes"/>
      <point x="441" y="627"/>
      <point x="439" y="716"/>
      <point x="361" y="716" type="curve" smooth="yes"/>
      <point x="249" y="716"/>
      <point x="249" y="632"/>
      <point x="249" y="464" type="curve" smooth="yes"/>
      <point x="249" y="404"/>
      <point x="281" y="367"/>
    </contour>
    <contour>
      <point x="126" y="367" type="curve" smooth="yes"/>
      <point x="200" y="367"/>
      <point x="234" y="401"/>
      <point x="234" y="464" type="curve" smooth="yes"/>
      <point x="234" y="524"/>
      <point x="202" y="561"/>
      <point x="126" y="561" type="curve" smooth="yes"/>
      <point x="118" y="561" type="line" smooth="yes"/>
      <point x="92" y="561"/>
      <point x="93" y="627"/>
      <point x="175" y="627" type="curve" smooth="yes"/>
      <point x="211" y="627"/>
      <point x="209" y="716"/>
      <point x="131" y="716" type="curve" smooth="yes"/>
      <point x="19" y="716"/>
      <point x="19" y="632"/>
      <point x="19" y="464" type="curve" smooth="yes"/>
      <point x="19" y="404"/>
      <point x="51" y="367"/>
    </contour>
  </outline>
</glyph>
